<?xml version="1.0" standalone="no"?>
<!DOCTYPE svg PUBLIC "-//W3C//DTD SVG 1.1//EN" "http://www.w3.org/Graphics/SVG/1.1/DTD/svg11.dtd" >
<svg xmlns="http://www.w3.org/2000/svg">
<metadata></metadata>
<defs>
<font id="directors_cut_proregular" horiz-adv-x="1191" >
<font-face units-per-em="2048" ascent="1593" descent="-455" />
<missing-glyph horiz-adv-x="512" />
<glyph unicode="&#xfb01;" horiz-adv-x="1187" d="M29 784v58l180 28v101q0 205 98.5 324.5t296.5 119.5q86 0 159 -38t73 -105q0 -47 -28 -78t-75 -31q-43 0 -66.5 27t-23.5 63q0 29 21 60q-37 23 -95 22q-221 0 -221 -364v-101h252v-86l-252 2v-706l162 -25v-55h-461v55l160 25v706zM668 0v55l161 25v704h-161v70l299 25 v-799l159 -25v-55h-458z" />
<glyph unicode="&#xfb02;" horiz-adv-x="1236" d="M29 784v58l180 28v101q0 205 98.5 324.5t296.5 119.5q86 0 159 -38t73 -105q0 -47 -28 -78t-75 -31q-43 0 -66.5 27t-23.5 63q0 29 21 60q-37 23 -95 22q-221 0 -221 -364v-101h273v-86l-273 2v-706l162 -25v-55h-461v55l160 25v706zM717 0v55l160 25v1223h-160v69 l299 25v-1317l160 -25v-55h-459z" />
<glyph unicode="&#xfb03;" horiz-adv-x="1826" d="M29 784v58l180 28v168q0 174 85 275.5t228 101.5q76 0 138.5 -33.5t62.5 -95.5q0 -41 -26.5 -70.5t-69.5 -29.5q-39 0 -62.5 25.5t-23.5 60.5q0 31 18 49q-35 20 -72 20q-139 1 -139 -292v-179h252v-86l-252 2v-706l162 -25v-55h-461v55l160 25v706zM668 784v58l180 28 v101q0 205 98 324.5t297 119.5q86 0 159 -38t73 -105q0 -47 -28 -78t-75 -31q-43 0 -66.5 27t-23.5 63q0 29 21 60q-37 23 -95 22q-221 0 -221 -364v-101h252v-86l-252 2v-706l162 -25v-55h-461v55l160 25v706zM1307 0v55l161 25v704h-161v70l299 25v-799l159 -25v-55h-458z " />
<glyph unicode="&#xfb04;" horiz-adv-x="1875" d="M29 784v58l180 28v168q0 174 85 275.5t228 101.5q76 0 138.5 -33.5t62.5 -95.5q0 -41 -26.5 -70.5t-69.5 -29.5q-39 0 -62.5 25.5t-23.5 60.5q0 31 18 49q-35 20 -72 20q-139 1 -139 -292v-179h252v-86l-252 2v-706l162 -25v-55h-461v55l160 25v706zM668 784v58l180 28 v101q0 205 98 324.5t297 119.5q86 0 159 -38t73 -105q0 -47 -28 -78t-75 -31q-43 0 -66.5 27t-23.5 63q0 29 21 60q-37 23 -95 22q-221 0 -221 -364v-101h273v-86l-273 2v-706l162 -25v-55h-461v55l160 25v706zM1356 0v55l160 25v1223h-160v69l299 25v-1317l160 -25v-55 h-459z" />
<glyph horiz-adv-x="0" />
<glyph unicode="&#xd;" horiz-adv-x="681" />
<glyph unicode=" "  horiz-adv-x="512" />
<glyph unicode="&#x09;" horiz-adv-x="512" />
<glyph unicode="&#xa0;" horiz-adv-x="512" />
<glyph unicode="!" horiz-adv-x="567" d="M182 90q0 47 29 77t74 30t72.5 -30t27.5 -77t-27.5 -76.5t-72.5 -29.5t-74 29.5t-29 76.5zM197 1399h176l-41 -1002h-94z" />
<glyph unicode="&#x22;" horiz-adv-x="708" d="M133 1464h139l-24 -528h-90zM436 1464h139l-24 -528h-90z" />
<glyph unicode="#" d="M78 449v116h241l41 260h-223v117h240l65 422h123l-63 -422h264l65 422h123l-63 -422h223v-117h-242l-41 -260h224v-116h-240l-70 -449h-122l67 449h-264l-70 -449h-123l68 449h-223zM442 565h267l41 260h-267z" />
<glyph unicode="$" horiz-adv-x="1093" d="M98 303q0 47 28 79t73 32q43 0 66.5 -27t23.5 -63q0 -53 -51 -80q27 -47 89 -84t162 -43v534q-188 47 -267 124t-79 200q0 135 97.5 230t248.5 116v205h99v-203q160 -8 269.5 -85t109.5 -161q0 -47 -28 -79.5t-75 -32.5q-43 0 -66.5 26.5t-23.5 63.5q0 53 51 80 q-61 98 -237 108v-461q201 -51 287 -139t86 -229q0 -150 -105.5 -253.5t-267.5 -119.5v-223h-99v219q-164 10 -277.5 94t-113.5 172zM279 1014q0 -76 49 -122t161 -83v430q-94 -16 -152 -78.5t-58 -146.5zM588 121q102 16 169.5 89t67.5 173q0 90 -56 146.5t-181 95.5v-504z " />
<glyph unicode="%" horiz-adv-x="1585" d="M84 1057q0 133 96 228t232 95q133 0 230 -95t97 -228t-97 -228.5t-230 -95.5q-135 0 -231.5 95.5t-96.5 228.5zM221 1059q0 -109 53.5 -180.5t137.5 -71.5t137 71.5t53 180.5q0 106 -53 178t-137 72t-137.5 -72t-53.5 -178zM340 -16l805 1396h96l-805 -1396h-96zM846 307 q0 133 96 228.5t232 95.5q133 0 230 -95.5t97 -228.5t-97 -228t-230 -95q-135 0 -231.5 95t-96.5 228zM983 309q0 -109 53.5 -180.5t137 -71.5t137 71.5t53.5 180.5q0 106 -53.5 178t-137 72t-137 -71.5t-53.5 -178.5z" />
<glyph unicode="&#x26;" horiz-adv-x="1546" d="M160 383q0 139 78.5 241.5t187.5 153.5q-45 45 -72.5 79t-56.5 96.5t-29 125.5q0 125 100.5 217.5t262.5 92.5q160 0 261 -74t101 -160q0 -49 -28.5 -83t-77.5 -34q-43 0 -68.5 28t-25.5 67q0 57 53 84q-82 92 -215 92q-100 0 -155.5 -60.5t-55.5 -150.5q0 -25 7 -50.5 t15.5 -42t31 -45t34.5 -41t47 -48t49 -50.5l453 -469q43 119 29.5 228.5t-70.5 197.5h-185v86h586v-86h-239q51 -92 45 -242.5t-80 -273.5l182 -188l121 -19v-55h-270l-132 139q-66 -68 -170 -113.5t-225 -45.5q-127 0 -226 39.5t-153.5 102t-82 130t-27.5 131.5zM319 401 q0 -131 97.5 -235.5t240.5 -104.5q92 0 179.5 49.5t134.5 104.5l-490 508q-162 -104 -162 -322z" />
<glyph unicode="'" horiz-adv-x="405" d="M133 1464h139l-24 -528h-90z" />
<glyph unicode="(" horiz-adv-x="737" d="M168 504q0 266 103.5 488t269.5 433l67 -43q-279 -395 -278 -878q-1 -488 278 -883l-67 -43q-373 471 -373 926z" />
<glyph unicode=")" horiz-adv-x="737" d="M129 -379q279 395 279 883q0 483 -279 878l68 43q166 -211 269 -433t103 -488q1 -455 -372 -926z" />
<glyph unicode="*" horiz-adv-x="1011" d="M133 1243q10 31 40 43t67 0q23 -6 104.5 -56t140.5 -69q0 61 -22.5 153.5t-22.5 115.5q0 41 22.5 65.5t53.5 24.5t53.5 -25t22.5 -65q0 -23 -21.5 -115t-21.5 -154q59 18 140 68.5t104 56.5q37 12 66.5 0t39.5 -43t-6 -59.5t-53 -40.5q-20 -8 -118 -16.5t-155 -28.5 q37 -49 110 -111.5t85 -79.5q23 -35 18.5 -66.5t-29 -50t-56 -11.5t-56.5 38q-14 18 -51 105.5t-72 136.5q-37 -49 -73.5 -136t-51.5 -106q-51 -72 -112 -29q-25 18 -29 50t18 67q14 18 88 82t111 111q-57 20 -155.5 28.5t-118.5 16.5q-37 12 -53.5 40.5t-6.5 59.5z" />
<glyph unicode="+" horiz-adv-x="1228" d="M162 455v127h389v403h127v-403h389v-127h-389v-404h-127v404h-389z" />
<glyph unicode="," horiz-adv-x="567" d="M162 -258q145 94 145 248v12q-59 0 -92 27.5t-33 70.5q0 41 30 67t67 26q63 0 97 -43.5t34 -106.5q0 -88 -64.5 -184.5t-152.5 -155.5z" />
<glyph unicode="-" horiz-adv-x="706" d="M98 397v133h510v-133h-510z" />
<glyph unicode="." horiz-adv-x="567" d="M186 90q0 45 27 74t72 29q43 0 69.5 -29t26.5 -74t-26.5 -73.5t-69.5 -28.5q-45 0 -72 28.5t-27 73.5z" />
<glyph unicode="/" horiz-adv-x="815" d="M78 -150l549 1694l110 -31l-549 -1693z" />
<glyph unicode="0" d="M121 682q0 358 132 528t343 170q205 0 340 -171t135 -527t-135 -527t-340 -171q-211 0 -343 170t-132 528zM285 682q0 -614 311 -614q139 0 225 147.5t86 466.5q0 344 -83 479t-228 135q-311 0 -311 -614z" />
<glyph unicode="1" horiz-adv-x="806" d="M31 1206l424 174h69l-8 -1292l227 -33v-55h-632v55l249 37l9 1163l-308 -125z" />
<glyph unicode="2" horiz-adv-x="1089" d="M47 0v49q229 205 378.5 360.5t218.5 265t92.5 179.5t23.5 141q0 133 -71.5 217t-188.5 84q-154 0 -228 -90q53 -27 54 -84q0 -39 -26 -66.5t-69 -27.5q-49 0 -77.5 34t-28.5 83q0 82 112.5 158.5t262.5 76.5q186 0 304 -108.5t118 -276.5q0 -66 -10.5 -118t-50.5 -129.5 t-112.5 -159.5t-201.5 -198t-314 -255l621 12l33 175h61l-20 -322h-881z" />
<glyph unicode="3" horiz-adv-x="1089" d="M76 219q0 49 28.5 83t77.5 34q43 0 68.5 -27.5t25.5 -66.5q0 -57 -53 -84q74 -90 223 -90q147 0 237.5 96t90.5 237q0 129 -93 204t-267 75q-51 0 -129 -10v110q66 -4 90 -4q182 0 268 76t86 188q0 121 -67.5 188.5t-169.5 67.5q-154 0 -228 -90q53 -27 53 -84 q0 -39 -25.5 -66.5t-68.5 -27.5q-49 0 -77.5 34t-28.5 83q0 82 112.5 158.5t262.5 76.5q170 0 283.5 -94t113.5 -246q0 -102 -56.5 -186t-154.5 -113q125 -33 192.5 -124t67.5 -211q0 -180 -139.5 -301t-352.5 -121q-152 0 -261 70.5t-109 164.5z" />
<glyph unicode="4" d="M43 385h717v-297l-207 -33v-55h551v55l-189 29v299h213v139h-213v674l-28 16l-127 -174v-516h-567l671 848l-65 55l-756 -970v-70z" />
<glyph unicode="5" horiz-adv-x="1089" d="M76 219q0 49 28.5 83t77.5 34q43 0 68.5 -27.5t25.5 -66.5q0 -57 -53 -84q74 -90 221.5 -90t252 113.5t104.5 279.5q0 158 -93.5 265.5t-244.5 107.5q-135 0 -258 -84l-27 16v598h717v-147l-602 10v-350q88 49 209 49q203 0 333 -128t130 -337q0 -215 -158 -346 t-377 -131q-137 0 -245.5 73.5t-108.5 161.5z" />
<glyph unicode="6" d="M121 608q0 375 165 573.5t406 198.5q137 0 246 -73.5t109 -161.5q0 -49 -29 -83t-78 -34q-43 0 -68.5 27.5t-25.5 66.5q0 57 53 84q-74 90 -227 90q-115 0 -202 -89t-128 -212t-47 -254q129 158 346 158q193 0 324 -126t131 -324q0 -195 -135.5 -330t-325.5 -135 q-76 0 -145.5 17t-138 62.5t-119 114t-81 179t-30.5 251.5zM301 442q0 -156 93 -266t222 -110q133 0 225.5 104t92.5 272t-92 272.5t-225.5 104.5t-224.5 -104.5t-91 -272.5z" />
<glyph unicode="7" horiz-adv-x="1024" d="M76 1042l20 322h881l22 -45l-657 -1319h-174l690 1229l-686 -10l-35 -177h-61z" />
<glyph unicode="8" d="M119 389q0 121 68.5 212t191.5 132q-100 37 -154.5 113t-54.5 178q0 150 124 253t302 103t302 -103t124 -253q0 -102 -54.5 -178t-154.5 -113q123 -41 191.5 -132t68.5 -212q0 -172 -137 -288.5t-340 -116.5t-340 116.5t-137 288.5zM283 365q0 -125 87 -211t226 -86 t226 86t87 211q0 131 -87 218t-226 87t-226 -87t-87 -218zM334 1038q0 -111 71.5 -185.5t190.5 -74.5q117 0 189.5 76t72.5 184.5t-71.5 183t-190.5 74.5t-190.5 -74.5t-71.5 -183.5z" />
<glyph unicode="9" d="M96 915q0 195 135.5 330t325.5 135q76 0 145.5 -17t138 -62.5t119 -114t81 -179t30.5 -251.5q0 -375 -165 -573.5t-406 -198.5q-137 0 -246 73.5t-109 161.5q0 49 29 83t78 34q43 0 68.5 -27.5t25.5 -66.5q0 -57 -53 -84q74 -90 227 -90q115 0 202 89t128 212t47 254 q-129 -158 -346 -158q-193 0 -324 126t-131 324zM258 922q0 -168 92 -272.5t225.5 -104.5t224.5 104.5t91 272.5q0 156 -93 266t-223 110q-133 0 -225 -104t-92 -272z" />
<glyph unicode=":" horiz-adv-x="567" d="M186 90q0 45 27 74t72 29q43 0 69.5 -29t26.5 -74t-26.5 -73.5t-69.5 -28.5q-45 0 -72 28.5t-27 73.5zM186 700q0 45 27 74t72 29q43 0 69.5 -29t26.5 -74t-26.5 -73.5t-69.5 -28.5q-45 0 -72 28.5t-27 73.5z" />
<glyph unicode=";" horiz-adv-x="567" d="M162 -258q145 94 145 248v12q-59 0 -92 27.5t-33 70.5q0 41 30 67t67 26q63 0 97 -43.5t34 -106.5q0 -88 -64.5 -184.5t-152.5 -155.5zM186 700q0 45 27 74t72 29q43 0 69.5 -29t26.5 -74t-26.5 -73.5t-69.5 -28.5q-45 0 -72 28.5t-27 73.5z" />
<glyph unicode="&#x3c;" horiz-adv-x="1228" d="M162 461v114l905 412v-127l-768 -342l768 -342v-127z" />
<glyph unicode="=" horiz-adv-x="1228" d="M162 268v127h905v-127h-905zM162 641v127h905v-127h-905z" />
<glyph unicode="&#x3e;" horiz-adv-x="1228" d="M162 49v127l768 342l-768 342v127l905 -412v-114z" />
<glyph unicode="?" horiz-adv-x="950" d="M72 1198q0 82 112.5 159t261.5 77q160 0 279 -92.5t119 -243.5q0 -96 -43 -171t-103.5 -124t-120 -99.5t-98.5 -127t-35 -179.5h-94q-14 125 14.5 217.5t80 146.5t104.5 99t92 104.5t39 133.5q0 119 -69 185.5t-165 66.5q-154 0 -227 -90q53 -27 53 -84q0 -39 -25.5 -67 t-68.5 -28q-49 0 -77.5 34t-28.5 83zM295 90q0 47 28.5 77t73.5 30t73 -30t28 -77t-28 -76.5t-73 -29.5t-73.5 29.5t-28.5 76.5z" />
<glyph unicode="@" horiz-adv-x="2048" d="M211 649q0 223 124 412.5t328.5 298t440.5 108.5q332 0 532.5 -179t200.5 -451q0 -217 -134 -378t-308.5 -161t-190.5 147q-104 -139 -262 -139q-139 0 -225 88t-86 226q0 188 129 326t309 138q80 0 141.5 -37.5t92.5 -84.5l32 110h127l-129 -438q-29 -100 -28 -137 q0 -59 28.5 -91t77.5 -32q117 0 210 137t93 332q0 233 -170 391t-440 158q-317 0 -541.5 -219.5t-224.5 -530.5q0 -299 188.5 -481t509.5 -182q162 0 328 61t278 160l56 -76q-113 -84 -290 -152.5t-372 -68.5q-369 0 -597 200.5t-228 544.5zM762 612q0 -102 51 -166.5 t135 -64.5q117 0 203 120t86 310q0 92 -52 146.5t-136 54.5q-113 0 -200 -115t-87 -285z" />
<glyph unicode="A" horiz-adv-x="1607" d="M0 0v55l186 29l529 1231l-187 28v56h336l557 -1315l187 -29v-55h-549v55l186 29l-184 453h-569l-187 -453l187 -29v-55h-492zM526 625h498l-248 606z" />
<glyph unicode="B" horiz-adv-x="1468" d="M100 0v55l187 29v1231l-187 28v56h725q215 0 325 -92.5t110 -243.5q0 -258 -263 -330q162 -31 243 -123t81 -225q0 -172 -121 -278.5t-366 -106.5h-734zM444 88h328q195 0 291 83t96 220q0 131 -87 209t-271 78h-357v-590zM444 766h318q176 0 257 76t81 205 q0 119 -87 191.5t-255 72.5h-314v-545z" />
<glyph unicode="C" horiz-adv-x="1454" d="M127 698q0 299 205 508t485 209q211 0 352.5 -96t141.5 -199q0 -53 -31 -89t-82 -36q-47 0 -73.5 30t-26.5 71q0 59 57 90q-45 55 -131 99t-207 44q-92 0 -181 -38t-167 -111.5t-125 -198.5t-47 -283q0 -266 150.5 -446t363.5 -180q231 0 449 194l53 -57 q-88 -90 -220 -157.5t-282 -67.5q-283 0 -483.5 204.5t-200.5 509.5z" />
<glyph unicode="D" horiz-adv-x="1609" d="M100 0v55l187 29v1231l-187 28v56h650q190 0 334.5 -55.5t229.5 -152.5t127 -221t42 -272q0 -311 -183.5 -504.5t-523.5 -193.5h-676zM444 88h308q256 0 408.5 165.5t152.5 444.5q0 281 -151.5 447t-409.5 166h-308v-1223z" />
<glyph unicode="E" horiz-adv-x="1413" d="M100 0v55l187 29v1231l-187 28v56h1114v-312h-55l-41 211l-674 13v-559l586 4v-97l-586 5v-576l707 12l43 222h61l-20 -322h-1135z" />
<glyph unicode="F" horiz-adv-x="1290" d="M100 0v55l187 29v1231l-187 28v56h1094v-312h-55l-41 211l-654 13v-559l566 4v-97l-566 5v-576l207 -33v-55h-551z" />
<glyph unicode="G" horiz-adv-x="1576" d="M127 698q0 -299 195.5 -506.5t490.5 -207.5q246 0 453 145l37 -129h73v717l-583 4v-96l432 4v-389q-53 -57 -168 -113.5t-244 -56.5q-227 0 -371.5 181t-144.5 445.5t158.5 448.5t388.5 184q121 0 207 -44t131 -99q-57 -31 -58 -90q0 -41 27 -71t74 -30q51 0 81.5 36 t30.5 89q0 102 -141 198.5t-352 96.5q-297 0 -507 -210t-210 -507z" />
<glyph unicode="H" horiz-adv-x="1703" d="M100 0v55l187 29v1231l-187 28v56h531v-56l-187 -28v-551h816v551l-187 28v56h531v-56l-187 -28v-1231l187 -29v-55h-531v55l187 29v592h-816v-592l187 -29v-55h-531z" />
<glyph unicode="I" horiz-adv-x="780" d="M125 0v55l186 29v1231l-186 28v56h530v-56l-186 -28v-1231l186 -29v-55h-530z" />
<glyph unicode="J" horiz-adv-x="1239" d="M41 279q0 -98 137 -196.5t307 -98.5q246 0 367 139t121 375v817l186 28v56h-551v-56l205 -32v-828q0 -197 -74.5 -305t-253.5 -108q-98 0 -177 45t-111 98q57 31 57 90q0 41 -26.5 70.5t-73.5 29.5q-51 0 -82 -35.5t-31 -88.5z" />
<glyph unicode="K" horiz-adv-x="1517" d="M100 0v55l187 29v1231l-187 28v56h531v-56l-187 -28v-598l641 598l-186 28v56h541v-56l-207 -32l-551 -492l621 -733l202 -31v-55h-336l-604 715l-121 -107v-524l187 -29v-55h-531z" />
<glyph unicode="L" horiz-adv-x="1331" d="M100 0v55l187 29v1231l-187 28v56h551v-56l-207 -32v-1223l686 12l44 222h61l-21 -322h-1114z" />
<glyph unicode="M" horiz-adv-x="1878" d="M74 0v55l186 29l49 1227l-205 32v56h363l473 -987l475 987h359v-56l-205 -32l49 -1227l186 -29v-55h-530v55l184 29l-43 1102l-479 -1008h-55l-484 1008l-30 -1102l186 -29v-55h-479z" />
<glyph unicode="N" horiz-adv-x="1652" d="M100 0v55l187 29v1231l-187 28v56h310l868 -1125l-16 1041l-187 28v56h477v-56l-186 -28v-1315h-78l-913 1182l14 -1098l189 -29v-55h-478z" />
<glyph unicode="O" horiz-adv-x="1687" d="M127 698q0 297 209 507t508 210t508 -210t209 -507t-210 -505.5t-507 -208.5t-507 208.5t-210 505.5zM297 698.5q0 -264.5 158.5 -446.5t388 -182t388.5 182t159 446.5t-159 447.5t-388.5 183t-388 -183t-158.5 -447.5z" />
<glyph unicode="P" horiz-adv-x="1366" d="M100 0v55l187 29v1231l-187 28v56h662q217 0 350 -115t133 -289t-133 -287.5t-350 -113.5h-318v-506l207 -33v-55h-551zM444 680h273q172 0 266 86t94 229.5t-94 229.5t-266 86h-273v-631z" />
<glyph unicode="Q" horiz-adv-x="1687" d="M127 698q0 297 209 507t508 210t508 -210t209 -507q0 -246 -143.5 -434t-366.5 -250q104 -111 163 -153q145 -108 294 -108q70 0 141 24l18 -45q-127 -82 -254 -85h-12q-120 0 -217 57q-103 60 -175.5 130t-129.5 152q-12 -2 -35 -2q-297 0 -507 208.5t-210 505.5z M297 698.5q0 -264.5 158.5 -446.5t388 -182t388.5 182t159 446.5t-159 447.5t-388.5 183t-388 -183t-158.5 -447.5z" />
<glyph unicode="R" horiz-adv-x="1476" d="M100 0v55l187 29v1231l-187 28v56h703q215 0 344 -107.5t129 -277.5t-106.5 -281t-303.5 -131l383 -516l201 -31v-55h-326l-440 600h-240v-516l187 -29v-55h-531zM444 688h261q182 0 292.5 82t110.5 234q0 139 -103.5 223t-277.5 84h-283v-623z" />
<glyph unicode="S" horiz-adv-x="1232" d="M115 279q0 53 30.5 88.5t81.5 35.5q47 0 74 -29.5t27 -70.5q0 -59 -58 -90q35 -57 116 -99t212 -42q137 0 231.5 85t94.5 212q0 115 -83 181t-274 112q-219 51 -310 138t-91 226q0 168 131 278.5t328 110.5q190 0 322 -88t132 -188q0 -53 -30.5 -89t-81.5 -36 q-47 0 -74 29.5t-27 70.5q0 59 58 90q-31 51 -110 87t-196 36q-129 0 -216 -73.5t-87 -184.5q0 -98 76 -153.5t256 -100.5q231 -57 328.5 -154.5t97.5 -257.5q0 -182 -138 -300.5t-343 -118.5q-195 0 -336 96t-141 199z" />
<glyph unicode="T" horiz-adv-x="1325" d="M82 1087v312h1161v-312h-55l-43 216l-404 8v-1223l207 -33v-55h-571v55l207 33v1223l-404 -8l-43 -216h-55z" />
<glyph unicode="U" horiz-adv-x="1634" d="M80 1343v56h530v-56l-186 -28v-746q0 -238 96 -367.5t297 -129.5t297 130t96 367v746l-186 28v56h530v-56l-186 -28v-752q0 -270 -146.5 -424.5t-404.5 -154.5t-404.5 154.5t-146.5 424.5v752z" />
<glyph unicode="V" horiz-adv-x="1474" d="M-66 1343v56h547v-56l-186 -28l479 -1127l461 1127l-186 28v56h491v-56l-186 -28l-580 -1331h-82l-573 1331z" />
<glyph unicode="W" horiz-adv-x="2070" d="M-53 1343v56h536v-56l-186 -28l334 -1086l399 1117h84l379 -1117l332 1086l-187 28v56h486v-56l-185 -28l-438 -1331h-82l-379 1091l-409 -1091h-82l-420 1331z" />
<glyph unicode="X" horiz-adv-x="1464" d="M0 0v55l184 29l463 612l-430 619l-182 28v56h557v-56l-178 -28l336 -479l350 479l-176 28v56h497v-56l-184 -28l-434 -561l465 -670l184 -29v-55h-555v55l174 27l-366 530l-381 -530l176 -27v-55h-500z" />
<glyph unicode="Y" horiz-adv-x="1327" d="M-66 1343v56h558v-56l-187 -28l393 -594l373 594l-186 28v56h508v-56l-185 -28l-467 -692v-535l207 -33v-55h-571v55l207 33v535l-469 692z" />
<glyph unicode="Z" horiz-adv-x="1294" d="M76 0v55l895 1254l-756 -11l-41 -211h-55v312h1067v-56l-895 -1253l801 10l43 222h61l-20 -322h-1100z" />
<glyph unicode="[" horiz-adv-x="737" d="M240 -395v1794h342v-70h-189v-1655h189v-69h-342z" />
<glyph unicode="\" horiz-adv-x="815" d="M25 1513l110 31l549 -1694l-111 -30z" />
<glyph unicode="]" horiz-adv-x="737" d="M156 -326h188v1655h-188v70h342v-1794h-342v69z" />
<glyph unicode="^" horiz-adv-x="1077" d="M139 776l359 639h82l358 -639h-88l-311 453l-312 -453h-88z" />
<glyph unicode="_" horiz-adv-x="1024" d="M0 -170h1024v-117h-1024v117z" />
<glyph unicode="`" horiz-adv-x="557" d="M82 1366q0 31 20.5 50.5t49.5 19.5q39 0 63 -41l225 -369h-82l-249 283q-27 26 -27 57z" />
<glyph unicode="a" horiz-adv-x="1030" d="M104 223q0 297 584 299q1 13 1 26q1 132 -57 194q-62 68 -163 69q-127 0 -188 -70q43 -23 43 -75q0 -33 -22.5 -58.5t-61.5 -25.5q-45 0 -71 30.5t-26 73.5q0 74 93.5 136.5t232.5 62.5q70 0 132.5 -19.5t115.5 -61.5t83 -117q28 -70 28 -164q0 -6 -1 -13l-8 -274v-14 q0 -87 23 -150l104 -17v-55h-225q-27 63 -29 129q-121 -143 -305 -143q-125 0 -204 64t-79 173zM250 236q0 -74 47 -116t133 -42q102 0 178 69.5t76 198.5l2 100q-22 1 -44 1q-392 0 -392 -211z" />
<glyph unicode="b" horiz-adv-x="1107" d="M6 1343v70l295 25v-697q45 61 126 102.5t171 41.5q176 0 294 -128t118 -321q0 -186 -120 -318t-296 -132q-201 0 -320 149l-47 -135h-61v1343h-160zM301 436q0 -168 78 -273.5t207 -105.5q119 0 198.5 109.5t79.5 269.5q0 158 -79.5 266.5t-198.5 108.5 q-129 0 -207 -101.5t-78 -273.5z" />
<glyph unicode="c" horiz-adv-x="993" d="M98 432q0 188 128 320.5t315 132.5q139 0 232 -62.5t93 -136.5q0 -43 -25.5 -73.5t-70.5 -30.5q-39 0 -61.5 25.5t-22.5 58.5q0 51 43 75q-66 70 -188 70q-133 0 -215 -110.5t-82 -272.5q0 -170 90 -264t211 -94q147 0 276 123l47 -54q-142 -153 -331 -153h-2 q-184 0 -310.5 130t-126.5 316z" />
<glyph unicode="d" horiz-adv-x="1155" d="M98 436q0 193 124 321t302 128q180 0 285 -137v595h-164v70l299 25v-1358l160 -25v-55h-295v131q-47 -61 -129 -103t-168 -42q-176 0 -295 127t-119 323zM244 436q0 -160 81 -269.5t199 -109.5q129 0 207 105.5t78 273.5q0 172 -78 273.5t-207 101.5 q-119 0 -199.5 -108.5t-80.5 -266.5z" />
<glyph unicode="e" horiz-adv-x="1036" d="M98 444q0 184 127 312.5t301 128.5q182 0 292 -123t110 -316h-684q2 -182 96 -279t219 -97q147 0 277 123l47 -54q-142 -153 -332 -153h-2q-188 0 -319.5 132t-131.5 326zM246 522h536q-10 133 -79.5 212t-176.5 79q-94 0 -182 -79t-98 -212z" />
<glyph unicode="f" horiz-adv-x="659" d="M29 784v58l180 28v168q0 174 85 275.5t228 101.5q76 0 138.5 -33.5t62.5 -95.5q0 -41 -26.5 -70.5t-69.5 -29.5q-39 0 -62.5 25.5t-23.5 60.5q0 31 18 49q-35 20 -72 20h-1q-138 0 -138 -292v-179h252v-86l-252 2v-706l162 -25v-55h-461v55l160 25v706z" />
<glyph unicode="g" horiz-adv-x="1155" d="M98 436q0 193 124 321t302 128q180 0 285 -137v122h295v-55l-160 -24v-754q0 -205 -105.5 -326t-318.5 -121q-154 0 -276.5 65.5t-122.5 147.5q0 45 27.5 74t68.5 29q37 0 61.5 -24.5t24.5 -61.5q0 -29 -29 -66q104 -90 246 -90q158 0 223.5 91t65.5 261v115 q-47 -61 -129 -103t-168 -42q-176 0 -295 127t-119 323zM244 436.5q0 -157.5 81 -267.5t199 -110q129 0 207 102.5t78 274.5q0 168 -78 271.5t-207 103.5q-119 0 -199.5 -108.5t-80.5 -266z" />
<glyph unicode="h" horiz-adv-x="1171" d="M51 0v55l160 25v1263h-160v70l297 25v-697q39 57 116 100.5t175 43.5q63 0 116.5 -16.5t102.5 -54.5t78 -112.5t29 -181.5v-440l161 -25v-55h-458v55l159 25v436q0 145 -67.5 204.5t-167.5 59.5q-106 0 -175 -68.5t-69 -185.5v-446l162 -25v-55h-459z" />
<glyph unicode="i" horiz-adv-x="608" d="M88 0v55l160 25v704h-160v70l299 25v-799l160 -25v-55h-459zM221 1180q0 43 26.5 71.5t69.5 28.5q41 0 68 -28.5t27 -71.5t-27 -72t-68 -29q-43 0 -69.5 29t-26.5 72z" />
<glyph unicode="j" horiz-adv-x="608" d="M-127 -281q0 -61 62.5 -95t138.5 -34q145 0 229 103.5t84 279.5v906l-301 -25v-70h160v-827q0 -291 -137 -291q-43 0 -72 19q16 20 16 51q0 35 -22.5 59.5t-61.5 24.5q-45 0 -70.5 -29t-25.5 -72zM221 1180q0 43 26.5 71.5t69.5 28.5q41 0 68 -28.5t27 -71.5t-27 -72 t-68 -29q-43 0 -69.5 29t-26.5 72z" />
<glyph unicode="k" horiz-adv-x="1112" d="M51 0v55l160 25v1263h-160v70l297 25v-973l342 328l-147 22v55h452v-55l-170 -27l-276 -243l399 -467l144 -23v-55h-265l-381 451l-98 -89v-282l162 -25v-55h-459z" />
<glyph unicode="l" horiz-adv-x="587" d="M68 0v55l159 25v1263h-159v70l299 25v-1358l159 -25v-55h-458z" />
<glyph unicode="m" horiz-adv-x="1710" d="M51 0v55l160 25v702h-160v72l297 25v-131q104 137 273 137q203 0 272 -170q45 72 125 121t180 49q59 0 108.5 -16.5t96.5 -54.5t74.5 -112.5t27.5 -181.5v-440l160 -25v-55h-448v55l149 25v436q0 145 -62.5 204.5t-154.5 59.5q-96 0 -159.5 -69.5t-63.5 -190.5v-440 l151 -25v-55h-438v55l149 25v436q0 145 -62 204.5t-155 59.5q-96 0 -159.5 -68.5t-63.5 -185.5v-446l152 -25v-55h-449z" />
<glyph unicode="n" horiz-adv-x="1171" d="M51 0v55l160 25v704h-160v70l297 25v-138q39 57 116 100.5t175 43.5q63 0 116.5 -16.5t102.5 -54.5t78 -112.5t29 -181.5v-440l161 -25v-55h-458v55l159 25v436q0 145 -67.5 204.5t-167.5 59.5q-106 0 -175 -68.5t-69 -185.5v-446l162 -25v-55h-459z" />
<glyph unicode="o" horiz-adv-x="1064" d="M98 436q0 184 127 316.5t307 132.5q178 0 306.5 -132.5t128.5 -316.5q0 -186 -128 -318t-307 -132q-180 0 -307 132t-127 318zM244 438q0 -160 83 -269.5t205 -109.5q121 0 205 111t84 268.5t-84 266t-205 108.5q-123 0 -205.5 -108.5t-82.5 -266.5z" />
<glyph unicode="p" horiz-adv-x="1153" d="M51 -340l160 25v1099h-160v70l295 25v-138q41 63 121 103.5t176 40.5q174 0 293 -127t119 -322q0 -186 -120 -318t-292 -132q-92 0 -173 40t-124 103v-440l178 -29v-55h-473v55zM346 436q0 -172 78 -274.5t207 -102.5q119 0 198.5 110t79.5 267q0 160 -79.5 268.5 t-198.5 108.5q-129 0 -207 -104.5t-78 -272.5z" />
<glyph unicode="q" horiz-adv-x="1126" d="M98 436q0 193 124 321t302 128q94 0 175 -41t132 -103l52 129h61v-1185l160 -25v-55h-473v55l178 29v442q-47 -61 -129 -103t-168 -42q-176 0 -295 127t-119 323zM244 436q0 -158 81 -267.5t199 -109.5q129 0 207 102.5t78 274.5q0 168 -78 272.5t-207 104.5 q-119 0 -199.5 -108.5t-80.5 -268.5z" />
<glyph unicode="r" horiz-adv-x="835" d="M51 0h459v55l-162 25v446q0 109 64.5 182.5t175.5 73.5q16 0 41 -4q-8 -25 -8 -39q0 -33 23.5 -58.5t62.5 -25.5q43 0 68.5 31t25.5 74q0 68 -54.5 96.5t-109.5 28.5q-90 0 -169 -42t-120 -104v140l-297 -25v-70h160v-704l-160 -25v-55z" />
<glyph unicode="s" horiz-adv-x="909" d="M94 197q0 43 24.5 69.5t63.5 26.5q35 0 57.5 -23.5t22.5 -56.5q0 -45 -35 -68q59 -86 211 -86q92 0 155.5 49.5t63.5 118.5q0 66 -57 102t-184 62q-289 61 -289 244q0 109 93 179.5t229 70.5q133 0 227 -62.5t94 -134.5q0 -41 -25.5 -68.5t-64.5 -27.5q-37 0 -58.5 24.5 t-21.5 55.5q0 45 35 69q-47 70 -191 70q-78 0 -135 -43t-57 -100q0 -55 50 -88t173 -58q164 -37 234.5 -101.5t70.5 -168.5q0 -115 -99 -190.5t-247 -75.5q-141 0 -240.5 68.5t-99.5 142.5z" />
<glyph unicode="t" horiz-adv-x="632" d="M6 784v86h180v283l140 59v-342h249v-84h-249v-473q0 -245 160 -245h1q33 0 78 10l15 -60q-87 -32 -154 -32h-4q-236 0 -236 340v458h-180z" />
<glyph unicode="u" horiz-adv-x="1150" d="M25 784v70l299 25v-525q0 -145 67.5 -204.5t167.5 -59.5q104 0 173 69.5t69 186.5v438h-160v70l299 25v-799l160 -25v-55h-299v133q-39 -59 -115 -103t-174 -44q-63 0 -116.5 16t-103.5 54t-79 113t-29 181v434h-159z" />
<glyph unicode="v" horiz-adv-x="1075" d="M-25 815v55h463v-55l-153 -22l282 -621l277 621l-154 22v55h410v-55l-150 -24l-383 -805h-71l-371 805z" />
<glyph unicode="w" horiz-adv-x="1492" d="M-12 815v55h454v-55l-153 -22l200 -598l240 645h78l244 -645l196 598l-155 22v55h413v-55l-149 -24l-295 -805h-74l-246 630l-247 -630h-76l-281 805z" />
<glyph unicode="x" horiz-adv-x="1019" d="M6 0v55l152 25l276 346l-268 365l-148 24v55h439v-55l-119 -20l192 -258l193 258l-117 20v55h393v-55l-151 -24l-270 -326l286 -385l150 -25v-55h-449v55l123 23l-203 276l-204 -278l125 -21v-55h-400z" />
<glyph unicode="y" horiz-adv-x="1075" d="M-27 -276q0 41 27 68.5t68 27.5q37 0 61.5 -24.5t24.5 -59.5q0 -25 -9 -39q27 -10 52 -10q41 0 78.5 22.5t71.5 70.5t53.5 82t52.5 95l34 68l-362 766l-150 24v55h463v-55l-153 -22l282 -605l277 605l-154 22v55h410v-55l-150 -24l-440 -900q-145 -301 -348 -301 q-78 0 -133.5 38t-55.5 96z" />
<glyph unicode="z" horiz-adv-x="948" d="M59 0v49l580 742l-451 -9l-30 -153h-56v241h734v-47l-580 -743l494 10l28 154h56l-15 -244h-760z" />
<glyph unicode="{" horiz-adv-x="778" d="M78 467v65q104 0 159.5 43t55.5 123q0 43 -22.5 201t-22.5 199q0 301 338 301q25 0 49 -2v-60q-127 0 -180.5 -58t-53.5 -192q0 -39 24 -180t21 -184q0 -74 -38.5 -136.5t-124.5 -86.5q86 -25 124.5 -87.5t38.5 -136.5q2 -43 -21.5 -184t-23.5 -180q0 -133 53.5 -191.5 t180.5 -58.5v-59q-25 -2 -49 -2q-338 0 -338 301q0 41 22.5 198.5t22.5 200.5q0 80 -55.5 123t-159.5 43z" />
<glyph unicode="|" horiz-adv-x="454" d="M158 -410v2048h139v-2048h-139z" />
<glyph unicode="}" horiz-adv-x="778" d="M143 -338v-59q25 -2 50 -2q338 0 337 301q0 41 -22.5 198.5t-22.5 200.5q0 80 55.5 123t159.5 43v65q-104 0 -159.5 43t-55.5 123q0 43 22.5 201t22.5 199q0 301 -337 301q-25 0 -50 -2v-60q127 0 180.5 -58t53.5 -192q0 -39 -23.5 -180t-21.5 -184q0 -74 39 -136.5 t125 -86.5q-86 -25 -125 -87.5t-39 -136.5q-2 -43 21.5 -184t23.5 -180q0 -133 -53.5 -191.5t-180.5 -58.5z" />
<glyph unicode="~" horiz-adv-x="1228" d="M162 397q76 238 276 238q66 0 192 -60.5t195 -60.5q47 0 86 34t52.5 58.5t21.5 48.5l82 -16q-78 -248 -276 -248q-68 0 -194 65.5t-194 65.5q-47 0 -85.5 -33.5t-52 -58t-21.5 -49.5z" />
<glyph unicode="&#xa1;" horiz-adv-x="567" d="M182 913.5q0 47.5 28 77t73 29.5t73.5 -29.5t28.5 -77t-28.5 -77t-73.5 -29.5t-73 29.5t-28 77zM195 -395l41 1001h94l41 -1001h-176z" />
<glyph unicode="&#xa2;" horiz-adv-x="1032" d="M121 682q0 170 107.5 298t273.5 150v211h88v-206q129 -6 214 -67.5t85 -131.5q0 -43 -25.5 -74t-70.5 -31q-39 0 -61.5 26t-22.5 58q0 51 43 76q-63 63 -162 70v-742q133 8 254 123l47 -53q-129 -139 -301 -153v-220h-88v222q-166 20 -273.5 146t-107.5 298zM266 678 q0 -145 67.5 -236.5t168.5 -113.5v727q-109 -27 -172.5 -131.5t-63.5 -245.5z" />
<glyph unicode="&#xa3;" d="M106 45q0 49 60.5 73.5t136.5 16.5q102 102 103 256q0 125 -64 248h-227v111h186q-45 94 -45 213q0 190 138 303.5t315 113.5q150 0 262 -76.5t112 -158.5q0 -49 -28.5 -83t-77.5 -34q-43 0 -68.5 27.5t-25.5 66.5q0 57 53 84q-73 90 -227 90q-139 0 -215 -95t-76 -238 q0 -49 14 -102.5t27 -82.5l14 -28h410v-111h-369q43 -94 43 -201q0 -168 -145 -301q70 4 195.5 -10t168.5 -14q219 0 244 209h61q-10 -197 -90 -274t-235 -77q-78 0 -200 30t-165 30q-41 0 -104.5 -22.5t-85.5 -24.5q-43 -6 -69 11t-26 50z" />
<glyph unicode="&#xa4;" d="M141 299l185 182q-66 88 -66 199t66 199l-185 182l74 74l184 -185q88 66 197 66t197 -66l184 185l74 -74l-185 -182q66 -88 66 -199t-66 -199l185 -182l-74 -74l-184 183q-86 -63 -197 -63.5t-197 63.5l-184 -183zM389 680q0 -86 60.5 -146.5t146.5 -60.5t146.5 60.5 t60.5 146.5t-60.5 146.5t-146.5 60.5t-146.5 -60.5t-60.5 -146.5z" />
<glyph unicode="&#xa5;" d="M-45 1309v55h520v-55l-174 -29l332 -559l307 559l-174 29v55h471v-55l-160 -29l-340 -557h301v-100h-362v-195h346v-100h-346v-240l207 -33v-55h-572v55l207 33v240h-352v100h352v195h-368v100h307l-346 557z" />
<glyph unicode="&#xa6;" horiz-adv-x="454" d="M158 -137v512h139v-512h-139zM158 887v512h139v-512h-139z" />
<glyph unicode="&#xa7;" horiz-adv-x="1116" d="M127 588q0 180 178 289q-125 104 -125 241q0 141 104.5 235.5t266.5 94.5q156 0 262.5 -74t106.5 -166q0 -45 -28 -75.5t-71 -30.5q-41 0 -64.5 26.5t-23.5 61.5q0 53 43 78q-55 94 -229 94q-88 0 -152.5 -57.5t-64.5 -149.5q0 -82 67.5 -149.5t164.5 -117.5 t194.5 -105.5t165 -140.5t67.5 -193q0 -184 -180 -289q127 -102 127 -242q0 -141 -104.5 -235.5t-266.5 -94.5q-156 0 -262 74t-106 166q0 45 27.5 75.5t70.5 30.5q41 0 64.5 -26.5t23.5 -61.5q0 -53 -43 -77q55 -95 229 -95q88 0 152.5 57.5t64.5 149.5q0 82 -67.5 149.5 t-164.5 118t-194.5 105.5t-165 140t-67.5 194zM281 623q0 -61 26.5 -111.5t79.5 -91.5t104.5 -71t127 -69.5t118.5 -68.5q99 78 99 203q0 59 -28 110t-81 92t-103.5 71t-127 70t-119.5 68q-96 -82 -96 -202z" />
<glyph unicode="&#xa8;" horiz-adv-x="557" d="M8 1180q0 43 26.5 71.5t69.5 28.5q41 0 68 -28.5t27 -71.5t-27 -72t-68 -29q-43 0 -69.5 29t-26.5 72zM358 1180q0 43 27 71.5t70 28.5q41 0 67.5 -28.5t26.5 -71.5t-26.5 -72t-67.5 -29q-43 0 -70 29t-27 72z" />
<glyph unicode="&#xa9;" horiz-adv-x="1646" d="M106 698q0 297 209 507t508 210t508 -210t209 -507t-210 -505.5t-507 -208.5t-507 208.5t-210 505.5zM209 698q0 -256 180 -438t434 -182t434.5 182t180.5 438q0 258 -180.5 440.5t-434.5 182.5t-434 -182.5t-180 -440.5zM426 694q0 174 119 298t293 124q129 0 216 -58.5 t87 -125.5q0 -41 -24.5 -69.5t-65.5 -28.5q-37 0 -57.5 23.5t-20.5 55.5q0 41 39 70q-55 63 -174 64q-125 0 -200 -102.5t-75 -252.5q0 -160 83 -247t196 -87q131 0 258 113l43 -47q-133 -143 -312 -143q-172 0 -288.5 119.5t-116.5 293.5z" />
<glyph unicode="&#xaa;" horiz-adv-x="847" d="M127 539v90h610v-90h-610zM143 907q0 217 408 219q2 96 -39 140.5t-104 44.5q-74 0 -119 -41q27 -18 26 -51q0 -29 -18 -49.5t-51 -20.5q-35 0 -55.5 23.5t-20.5 58.5q0 55 67.5 102t170.5 47q109 0 185.5 -66.5t72.5 -205.5l-7 -190q-2 -53 13 -105l78 -14v-56h-170 q-16 27 -25 78q-92 -88 -205 -88q-92 0 -149.5 47t-57.5 127zM264 918q0 -102 117 -103q66 0 116 47t50 131l2 62q-285 2 -285 -137z" />
<glyph unicode="&#xab;" horiz-adv-x="1026" d="M72 451l405 356l45 -45l-262 -311l262 -312l-45 -45zM453 451l405 356l43 -45l-260 -311l260 -312l-43 -45z" />
<glyph unicode="&#xac;" horiz-adv-x="1228" d="M162 641v127h905v-500h-125v373h-780z" />
<glyph unicode="&#xad;" horiz-adv-x="706" d="M98 397v133h510v-133h-510z" />
<glyph unicode="&#xae;" horiz-adv-x="1222" d="M115 1055q0 205 145.5 348t351.5 143q205 0 350.5 -143t145.5 -348q0 -203 -145.5 -346.5t-350.5 -143.5q-207 0 -352 142.5t-145 347.5zM203 1055q0 -170 119.5 -291t289.5 -121q168 0 287 121t119 291q0 172 -118 291.5t-288 119.5t-289.5 -119.5t-119.5 -291.5z M356 784v35l70 12v455l-70 12v33h283q88 0 142.5 -42t54.5 -118q0 -66 -49.5 -109.5t-127.5 -47.5l170 -183l72 -12v-35h-131l-213 230h-47v-183l70 -12v-35h-224zM510 1061h117q51 0 86 27.5t35 82.5q0 57 -35 85t-86 28h-117v-223z" />
<glyph unicode="&#xaf;" horiz-adv-x="557" d="M12 1114v111h533v-111h-533z" />
<glyph unicode="&#xb0;" horiz-adv-x="847" d="M121 1145q0 123 89 210t214 87q123 0 213 -87t90 -210t-90 -210t-213 -87q-125 0 -214 87t-89 210zM254 1147q0 -92 48 -153.5t122 -61.5t122 61.5t48 153.5q0 90 -48 151.5t-122 61.5t-122 -61.5t-48 -151.5z" />
<glyph unicode="&#xb1;" horiz-adv-x="1228" d="M162 57v125h905v-125h-905zM162 600v125h389v352h127v-352h389v-125h-389v-352h-127v352h-389z" />
<glyph unicode="&#xb2;" horiz-adv-x="790" d="M94 555v45q274 223 362.5 342t88.5 203q0 72 -43 120t-111 48q-76 0 -123 -39q39 -29 23.5 -77t-68.5 -48q-37 0 -58.5 24.5t-21.5 59.5q0 53 73 100t177 47q123 0 200 -66.5t77 -168.5q0 -68 -20.5 -120t-114 -147.5t-271.5 -220.5l350 7l21 102h53l-14 -211h-580z" />
<glyph unicode="&#xb3;" horiz-adv-x="790" d="M109 694q0 33 21.5 56.5t57.5 23.5q53 0 68.5 -45t-23.5 -78q41 -37 119 -37q88 0 142.5 54.5t54.5 132.5q0 70 -56.5 110.5t-158.5 40.5q-39 0 -94 -8v84q2 0 24.5 -1t44.5 -1q109 0 160 41t51 104.5t-40 101.5t-99 38q-72 0 -123 -39q39 -31 23.5 -76t-68.5 -45 q-35 0 -56.5 23.5t-21.5 56.5q0 53 75 101t173 48q113 0 187.5 -57t74.5 -152q0 -125 -127 -172q158 -49 158 -196q0 -111 -91 -184.5t-231 -73.5q-100 0 -172.5 45t-72.5 104z" />
<glyph unicode="&#xb4;" horiz-adv-x="557" d="M158 1026l223 365q33 57 76 57q31 0 49 -17.5t18 -48.5q0 -37 -43 -84l-241 -272h-82z" />
<glyph unicode="&#xb6;" d="M82 975q0 215 148.5 319.5t347.5 104.5h581v-56l-174 -26v-1688h-100v1682l-166 -2v-1680h-328v56l187 28v836q-90 0 -175.5 23.5t-159 71.5t-117.5 133t-44 198zM303 975q0 -139 79 -236.5t196 -99.5v670q-117 -2 -196 -98.5t-79 -235.5z" />
<glyph unicode="&#xb7;" horiz-adv-x="567" d="M186 465q0 45 27 73.5t72 28.5q43 0 69.5 -28.5t26.5 -73.5t-26.5 -74t-69.5 -29q-45 0 -72 29t-27 74z" />
<glyph unicode="&#xb8;" horiz-adv-x="557" d="M84 -371q0 33 21.5 53.5t52.5 20.5q35 0 54 -27.5t15 -66.5q16 -10 39 -10q27 0 44.5 19.5t17.5 47.5q0 45 -52 96q-66 70 -65 111q0 66 102 143h72q-74 -74 -74 -108q0 -29 51 -80q68 -63 68 -127q0 -72 -57.5 -118t-151.5 -46q-57 0 -97 24.5t-40 67.5z" />
<glyph unicode="&#xb9;" horiz-adv-x="688" d="M84 1276l281 104h59l-4 -749l143 -21v-53h-424v53l158 25l4 643l-186 -70z" />
<glyph unicode="&#xba;" horiz-adv-x="847" d="M113 539v90h622v-90h-622zM113 1057q0 133 91 228t220 95q127 0 219 -95t92 -228t-92 -228.5t-219 -95.5q-129 0 -220 95.5t-91 228.5zM231 1059q0 -109 55.5 -182.5t137.5 -73.5t137 73.5t55 182.5q0 106 -55 179t-137 73t-137.5 -73t-55.5 -179z" />
<glyph unicode="&#xbb;" horiz-adv-x="1026" d="M123 139l260 312l-260 311l45 45l405 -356l-405 -357zM504 139l260 312l-260 311l43 45l405 -356l-405 -357z" />
<glyph unicode="&#xbc;" horiz-adv-x="1562" d="M84 1276l281 104h59l-4 -749l143 -21v-53h-424v53l158 25l4 643l-186 -70zM332 -16l805 1396h96l-805 -1396h-96zM784 225h420v-153l-131 -19v-53h373v53l-121 19v153h135v103h-135v387l-29 14l-92 -113v-288h-299l385 487l-55 45l-451 -579v-56z" />
<glyph unicode="&#xbd;" horiz-adv-x="1585" d="M84 1276l281 104h59l-4 -749l143 -21v-53h-424v53l158 25l4 643l-186 -70zM295 -16l805 1396h96l-805 -1396h-96zM881 0v45q274 223 362 342t88 203q0 72 -42.5 120t-110.5 48q-76 0 -123 -39q39 -29 23.5 -77t-68.5 -48q-37 0 -58.5 24.5t-21.5 59.5q0 53 72.5 100 t177.5 47q123 0 199.5 -66.5t76.5 -168.5q0 -68 -20.5 -120t-113.5 -147.5t-271 -220.5l350 7l20 102h54l-15 -211h-579z" />
<glyph unicode="&#xbe;" horiz-adv-x="1585" d="M109 694q0 33 21.5 56.5t57.5 23.5q53 0 68.5 -45t-23.5 -78q41 -37 119 -37q88 0 142.5 54.5t54.5 132.5q0 70 -56.5 110.5t-158.5 40.5q-39 0 -94 -8v84q2 0 24.5 -1t44.5 -1q109 0 160 41t51 104.5t-40 101.5t-99 38q-72 0 -123 -39q39 -31 23.5 -76t-68.5 -45 q-35 0 -56.5 23.5t-21.5 56.5q0 53 75 101t173 48q113 0 187.5 -57t74.5 -152q0 -125 -127 -172q158 -49 158 -196q0 -111 -91 -184.5t-231 -73.5q-100 0 -172.5 45t-72.5 104zM383 -16l805 1396h96l-805 -1396h-96zM825 225h420v-153l-131 -19v-53h373v53l-121 19v153h135 v103h-135v387l-29 14l-92 -113v-288h-299l385 487l-55 45l-451 -579v-56z" />
<glyph unicode="&#xbf;" horiz-adv-x="950" d="M106 -94q0 96 43.5 171t103.5 124t119.5 99t98.5 127t35 179h94q14 -125 -14.5 -217t-79.5 -146.5t-104.5 -99.5t-92.5 -104t-39 -133q0 -119 69 -185.5t165 -66.5q154 0 227 90q-53 27 -53 84q0 39 25.5 66.5t68.5 27.5q49 0 78 -33.5t29 -83.5q0 -82 -113 -158.5 t-262 -76.5q-160 0 -279 92t-119 244zM453 913.5q0 47.5 27.5 77t72.5 29.5t73.5 -29.5t28.5 -77t-28.5 -77t-73.5 -29.5t-72.5 29.5t-27.5 77z" />
<glyph unicode="&#xc0;" horiz-adv-x="1607" d="M0 0v55l186 29l529 1231l-187 28v56h336l557 -1315l187 -29v-55h-549v55l186 29l-184 453h-569l-187 -453l187 -29v-55h-492zM526 625h498l-248 606zM535 1853.5q0 30.5 20 50t49 19.5q39 0 64 -41l225 -369h-82l-250 283q-26 27 -26 57.5z" />
<glyph unicode="&#xc1;" horiz-adv-x="1607" d="M0 0v55l186 29l529 1231l-187 28v56h336l557 -1315l187 -29v-55h-549v55l186 29l-184 453h-569l-187 -453l187 -29v-55h-492zM526 625h498l-248 606zM702 1513l224 365q33 57 75 57q31 0 49.5 -17t18.5 -48q0 -37 -43 -84l-242 -273h-82z" />
<glyph unicode="&#xc2;" horiz-adv-x="1607" d="M0 0v55l186 29l529 1231l-187 28v56h336l557 -1315l187 -29v-55h-549v55l186 29l-184 453h-569l-187 -453l187 -29v-55h-492zM524 1513l234 383h49l233 -383h-82l-176 201l-176 -201h-82zM526 625h498l-248 606z" />
<glyph unicode="&#xc3;" horiz-adv-x="1607" d="M0 0v55l186 29l529 1231l-187 28v56h336l557 -1315l187 -29v-55h-549v55l186 29l-184 453h-569l-187 -453l187 -29v-55h-492zM461 1565q23 76 77 132t140 56q49 0 134 -38t140 -38q49 0 77 29t34 57l61 -18q-23 -76 -77 -132.5t-140 -56.5q-51 0 -136 38t-138 38 q-49 0 -77 -28.5t-34 -57.5zM526 625h498l-248 606z" />
<glyph unicode="&#xc4;" horiz-adv-x="1607" d="M0 0v55l186 29l529 1231l-187 28v56h336l557 -1315l187 -29v-55h-549v55l186 29l-184 453h-569l-187 -453l187 -29v-55h-492zM504 1667q0 45 27.5 75t72.5 30q43 0 70.5 -30t27.5 -75t-27.5 -74.5t-70.5 -29.5q-45 0 -72.5 29.5t-27.5 74.5zM526 625h498l-248 606z M862 1667q0 45 28 75t73 30q43 0 70.5 -30t27.5 -75t-27.5 -74.5t-70.5 -29.5q-45 0 -73 29.5t-28 74.5z" />
<glyph unicode="&#xc5;" horiz-adv-x="1607" d="M0 0v55l186 29l529 1231l-187 28v56h336l557 -1315l187 -29v-55h-549v55l186 29l-184 453h-569l-187 -453l187 -29v-55h-492zM526 625h498l-248 606zM541 1751q0 98 70.5 168t170.5 70q98 0 170 -70t72 -168t-71.5 -168t-170.5 -70q-100 0 -170.5 70t-70.5 168zM647 1753 q0 -72 39 -122t96.5 -50t96.5 50t39 122t-39 121t-96.5 49t-96.5 -49t-39 -121z" />
<glyph unicode="&#xc6;" horiz-adv-x="2115" d="M-186 0v55l186 29l877 1231l-187 28v56h1227v-312h-55l-41 211l-674 13v-559l586 4v-97l-586 5v-576l706 12l43 222h62l-21 -322h-1134v55l186 29v489h-516l-342 -489l186 -29v-55h-503zM535 662h454v649z" />
<glyph unicode="&#xc7;" horiz-adv-x="1454" d="M127 698q0 299 205 508t485 209q211 0 352.5 -96t141.5 -199q0 -53 -31 -89t-82 -36q-47 0 -73.5 30t-26.5 71q0 59 57 90q-45 55 -131 99t-207 44q-92 0 -181 -38t-167 -111.5t-125 -198.5t-47 -283q0 -266 150.5 -446t363.5 -180q231 0 449 194l53 -57 q-88 -90 -220 -157.5t-282 -67.5q-41 -47 -41 -76t51 -80q68 -63 68 -127q0 -72 -57.5 -118t-151.5 -46q-57 0 -97 24.5t-40 67.5q0 33 21.5 53.5t51.5 20.5q35 0 54.5 -27.5t15.5 -66.5q16 -10 39 -10q27 0 44 19.5t17 47.5q0 45 -51 96q-66 70 -65 111q0 57 67 115 q-260 29 -435 227.5t-175 482.5z" />
<glyph unicode="&#xc8;" horiz-adv-x="1413" d="M100 0v55l187 29v1231l-187 28v56h1114v-312h-55l-41 211l-674 13v-559l586 4v-97l-586 5v-576l707 12l43 222h61l-20 -322h-1135zM475 1853.5q0 30.5 20.5 50t49.5 19.5q39 0 63 -41l226 -369h-82l-250 283q-27 27 -27 57.5z" />
<glyph unicode="&#xc9;" horiz-adv-x="1413" d="M100 0v55l187 29v1231l-187 28v56h1114v-312h-55l-41 211l-674 13v-559l586 4v-97l-586 5v-576l707 12l43 222h61l-20 -322h-1135zM647 1513l223 365q33 57 76 57q31 0 49.5 -17t18.5 -48q0 -37 -43 -84l-242 -273h-82z" />
<glyph unicode="&#xca;" horiz-adv-x="1413" d="M100 0v55l187 29v1231l-187 28v56h1114v-312h-55l-41 211l-674 13v-559l586 4v-97l-586 5v-576l707 12l43 222h61l-20 -322h-1135zM475 1513l234 383h49l233 -383h-82l-176 201l-176 -201h-82z" />
<glyph unicode="&#xcb;" horiz-adv-x="1413" d="M100 0v55l187 29v1231l-187 28v56h1114v-312h-55l-41 211l-674 13v-559l586 4v-97l-586 5v-576l707 12l43 222h61l-20 -322h-1135zM455 1667q0 45 27.5 75t72.5 30q43 0 70.5 -30t27.5 -75t-27.5 -74.5t-70.5 -29.5q-45 0 -72.5 29.5t-27.5 74.5zM813 1667q0 45 27.5 75 t72.5 30q43 0 71 -30t28 -75t-28 -74.5t-71 -29.5q-45 0 -72.5 29.5t-27.5 74.5z" />
<glyph unicode="&#xcc;" horiz-adv-x="780" d="M125 0v55l186 29v1231l-186 28v56h530v-56l-186 -28v-1231l186 -29v-55h-530zM154 1853.5q0 30.5 20.5 50t48.5 19.5q39 0 64 -41l225 -369h-82l-250 283q-26 27 -26 57.5z" />
<glyph unicode="&#xcd;" horiz-adv-x="780" d="M125 0v55l186 29v1231l-186 28v56h530v-56l-186 -28v-1231l186 -29v-55h-530zM291 1513l223 365q33 57 76 57q31 0 49 -17t18 -48q0 -37 -43 -84l-241 -273h-82z" />
<glyph unicode="&#xce;" horiz-adv-x="780" d="M125 0v55l186 29v1231l-186 28v56h530v-56l-186 -28v-1231l186 -29v-55h-530zM133 1513l234 383h49l233 -383h-82l-176 201l-176 -201h-82z" />
<glyph unicode="&#xcf;" horiz-adv-x="780" d="M113 1667q0 45 27.5 75t72.5 30q43 0 70.5 -30t27.5 -75t-27.5 -74.5t-70.5 -29.5q-45 0 -72.5 29.5t-27.5 74.5zM125 0v55l186 29v1231l-186 28v56h530v-56l-186 -28v-1231l186 -29v-55h-530zM471 1667q0 45 27.5 75t72.5 30q43 0 71 -30t28 -75t-28 -74.5t-71 -29.5 q-45 0 -72.5 29.5t-27.5 74.5z" />
<glyph unicode="&#xd0;" horiz-adv-x="1609" d="M82 670v100h205v545l-187 28v56h650q190 0 334.5 -55.5t229.5 -152.5t127 -221t42 -272q0 -311 -183.5 -504.5t-523.5 -193.5h-676v55l187 29v586h-205zM444 88h308q256 0 408.5 165.5t152.5 444.5q0 281 -151.5 447t-409.5 166h-308v-541h365v-100h-365v-582z" />
<glyph unicode="&#xd1;" horiz-adv-x="1652" d="M100 0v55l187 29v1231l-187 28v56h310l868 -1125l-16 1041l-187 28v56h477v-56l-186 -28v-1315h-78l-913 1182l14 -1098l189 -29v-55h-478zM532 1565q23 76 77.5 132t140.5 56q49 0 134 -38t140 -38q49 0 76.5 29t34.5 57l61 -18q-23 -76 -77 -132.5t-140 -56.5 q-51 0 -136 38t-138 38q-49 0 -77 -28.5t-34 -57.5z" />
<glyph unicode="&#xd2;" horiz-adv-x="1687" d="M127 698q0 297 209 507t508 210t508 -210t209 -507t-210 -505.5t-507 -208.5t-507 208.5t-210 505.5zM297 698.5q0 -264.5 158.5 -446.5t388 -182t388.5 182t159 446.5t-159 447.5t-388.5 183t-388 -183t-158.5 -447.5zM627 1853.5q0 30.5 20.5 50t48.5 19.5q39 0 64 -41 l225 -369h-82l-250 283q-26 27 -26 57.5z" />
<glyph unicode="&#xd3;" horiz-adv-x="1687" d="M127 698q0 297 209 507t508 210t508 -210t209 -507t-210 -505.5t-507 -208.5t-507 208.5t-210 505.5zM297 698.5q0 -264.5 158.5 -446.5t388 -182t388.5 182t159 446.5t-159 447.5t-388.5 183t-388 -183t-158.5 -447.5zM743 1513l224 365q33 57 75 57q31 0 49.5 -17 t18.5 -48q0 -37 -43 -84l-242 -273h-82z" />
<glyph unicode="&#xd4;" horiz-adv-x="1687" d="M127 698q0 297 209 507t508 210t508 -210t209 -507t-210 -505.5t-507 -208.5t-507 208.5t-210 505.5zM297 698.5q0 -264.5 158.5 -446.5t388 -182t388.5 182t159 446.5t-159 447.5t-388.5 183t-388 -183t-158.5 -447.5zM586 1513l233 383h49l234 -383h-82l-176 201 l-176 -201h-82z" />
<glyph unicode="&#xd5;" horiz-adv-x="1687" d="M127 698q0 297 209 507t508 210t508 -210t209 -507t-210 -505.5t-507 -208.5t-507 208.5t-210 505.5zM297 698.5q0 -264.5 158.5 -446.5t388 -182t388.5 182t159 446.5t-159 447.5t-388.5 183t-388 -183t-158.5 -447.5zM535 1565q23 76 77 132t140 56q49 0 134 -38 t140 -38q49 0 76.5 29t34.5 57l61 -18q-23 -76 -77 -132.5t-140 -56.5q-51 0 -136 38t-138 38q-49 0 -77 -28.5t-34 -57.5z" />
<glyph unicode="&#xd6;" horiz-adv-x="1687" d="M127 698q0 297 209 507t508 210t508 -210t209 -507t-210 -505.5t-507 -208.5t-507 208.5t-210 505.5zM297 698.5q0 -264.5 158.5 -446.5t388 -182t388.5 182t159 446.5t-159 447.5t-388.5 183t-388 -183t-158.5 -447.5zM565 1667q0 45 28 75t73 30q43 0 70.5 -30 t27.5 -75t-27.5 -74.5t-70.5 -29.5q-45 0 -73 29.5t-28 74.5zM924 1667q0 45 27.5 75t72.5 30q43 0 70.5 -30t27.5 -75t-27.5 -74.5t-70.5 -29.5q-45 0 -72.5 29.5t-27.5 74.5z" />
<glyph unicode="&#xd7;" horiz-adv-x="1228" d="M193 184l335 336l-333 332l88 88l333 -332l332 332l88 -88l-331 -332l333 -336l-88 -88l-334 336l-335 -336z" />
<glyph unicode="&#xd8;" horiz-adv-x="1687" d="M127 698.5q0 296.5 209 506.5t508 210q236 0 424 -139l182 211l82 -72l-182 -209q211 -207 211 -508q0 -297 -210 -505.5t-507 -208.5q-238 0 -428 141l-185 -213l-81 72l184 211q-207 207 -207 503.5zM297 698q0 -225 123 -401l770 891q-152 141 -346 141 q-229 0 -388 -183.5t-159 -447.5zM492 213q150 -143 352 -143q229 0 388 182t159 446q0 229 -129 406z" />
<glyph unicode="&#xd9;" horiz-adv-x="1634" d="M80 1343v56h530v-56l-186 -28v-746q0 -238 96 -367.5t297 -129.5t297 130t96 367v746l-186 28v56h530v-56l-186 -28v-752q0 -270 -146.5 -424.5t-404.5 -154.5t-404.5 154.5t-146.5 424.5v752zM600 1853.5q0 30.5 20.5 50t49.5 19.5q39 0 63 -41l225 -369h-81l-250 283 q-27 27 -27 57.5z" />
<glyph unicode="&#xda;" horiz-adv-x="1634" d="M80 1343v56h530v-56l-186 -28v-746q0 -238 96 -367.5t297 -129.5t297 130t96 367v746l-186 28v56h530v-56l-186 -28v-752q0 -270 -146.5 -424.5t-404.5 -154.5t-404.5 154.5t-146.5 424.5v752zM737 1513l224 365q33 57 75 57q31 0 49.5 -17t18.5 -48q0 -37 -43 -84 l-242 -273h-82z" />
<glyph unicode="&#xdb;" horiz-adv-x="1634" d="M80 1343v56h530v-56l-186 -28v-746q0 -238 96 -367.5t297 -129.5t297 130t96 367v746l-186 28v56h530v-56l-186 -28v-752q0 -270 -146.5 -424.5t-404.5 -154.5t-404.5 154.5t-146.5 424.5v752zM559 1513l234 383h49l233 -383h-82l-176 201l-176 -201h-82z" />
<glyph unicode="&#xdc;" horiz-adv-x="1634" d="M80 1343v56h530v-56l-186 -28v-746q0 -238 96 -367.5t297 -129.5t297 130t96 367v746l-186 28v56h530v-56l-186 -28v-752q0 -270 -146.5 -424.5t-404.5 -154.5t-404.5 154.5t-146.5 424.5v752zM539 1667q0 45 27.5 75t72.5 30q43 0 70.5 -30t27.5 -75t-27.5 -74.5 t-70.5 -29.5q-45 0 -72.5 29.5t-27.5 74.5zM897 1667q0 45 27.5 75t72.5 30q43 0 71 -30t28 -75t-28 -74.5t-71 -29.5q-45 0 -72.5 29.5t-27.5 74.5z" />
<glyph unicode="&#xdd;" horiz-adv-x="1327" d="M-66 1343v56h558v-56l-187 -28l393 -594l373 594l-186 28v56h508v-56l-185 -28l-467 -692v-535l207 -33v-55h-571v55l207 33v535l-469 692zM598 1513l223 365q33 57 76 57q31 0 49.5 -17t18.5 -48q0 -37 -43 -84l-242 -273h-82z" />
<glyph unicode="&#xde;" horiz-adv-x="1372" d="M100 0v55l187 29v1231l-187 28v56h551v-56l-207 -32v-201h318q217 0 350 -114.5t133 -289t-133 -288t-350 -113.5h-318v-217l207 -33v-55h-551zM444 391h273q172 0 266 86t94 229.5t-94 229.5t-266 86h-273v-631z" />
<glyph unicode="&#xdf;" horiz-adv-x="1183" d="M37 784v58l172 28v107q0 231 108.5 334.5t268.5 103.5q51 0 101 -13t102.5 -42t84 -88.5t31.5 -138.5q0 -82 -50 -144.5t-109.5 -91.5t-109.5 -66.5t-50 -76.5q0 -41 51 -79t125 -72t147.5 -74t124.5 -103.5t51 -142.5q0 -131 -88 -215t-235 -84q-133 0 -236.5 72.5 t-103.5 150.5q0 47 25.5 76.5t68.5 29.5q41 0 63.5 -24.5t22.5 -61.5q0 -53 -41 -75q57 -94 201 -95q78 0 128 54.5t50 142.5q0 59 -50 107.5t-122 82t-143.5 66.5t-121.5 82t-50 108q0 57 49 109.5t107.5 88.5t107.5 98.5t49 138.5q0 121 -55.5 164.5t-124.5 43.5 q-109 0 -173.5 -89t-64.5 -277v-977h-299v55l160 25v706z" />
<glyph unicode="&#xe0;" horiz-adv-x="1030" d="M104 223q0 297 584 299q6 152 -56.5 220.5t-162.5 68.5q-127 0 -188 -70q43 -23 43 -75q0 -33 -22.5 -58.5t-61.5 -25.5q-45 0 -71 30.5t-26 73.5q0 74 93.5 136.5t232.5 62.5q70 0 132.5 -19.5t115.5 -61.5t82.5 -117t27.5 -177l-8 -274q-2 -96 23 -164l104 -17v-55 h-225q-27 63 -29 129q-121 -143 -305 -143q-125 0 -204 64t-79 173zM250 236q0 -74 47 -116t133 -42q102 0 178 69.5t76 198.5l2 100q-436 12 -436 -210zM283 1366q0 31 20.5 50.5t48.5 19.5q39 0 64 -41l225 -369h-82l-250 283q-26 26 -26 57z" />
<glyph unicode="&#xe1;" horiz-adv-x="1030" d="M104 223q0 297 584 299q6 152 -56.5 220.5t-162.5 68.5q-127 0 -188 -70q43 -23 43 -75q0 -33 -22.5 -58.5t-61.5 -25.5q-45 0 -71 30.5t-26 73.5q0 74 93.5 136.5t232.5 62.5q70 0 132.5 -19.5t115.5 -61.5t82.5 -117t27.5 -177l-8 -274q-2 -96 23 -164l104 -17v-55 h-225q-27 63 -29 129q-121 -143 -305 -143q-125 0 -204 64t-79 173zM250 236q0 -74 47 -116t133 -42q102 0 178 69.5t76 198.5l2 100q-436 12 -436 -210zM391 1026l223 365q33 57 76 57q31 0 49.5 -17.5t18.5 -48.5q0 -37 -43 -84l-242 -272h-82z" />
<glyph unicode="&#xe2;" horiz-adv-x="1030" d="M104 223q0 297 584 299q6 152 -56.5 220.5t-162.5 68.5q-127 0 -188 -70q43 -23 43 -75q0 -33 -22.5 -58.5t-61.5 -25.5q-45 0 -71 30.5t-26 73.5q0 74 93.5 136.5t232.5 62.5q70 0 132.5 -19.5t115.5 -61.5t82.5 -117t27.5 -177l-8 -274q-2 -96 23 -164l104 -17v-55 h-225q-27 63 -29 129q-121 -143 -305 -143q-125 0 -204 64t-79 173zM233 1026l234 383h49l234 -383h-82l-176 201l-177 -201h-82zM250 236q0 -74 47 -116t133 -42q102 0 178 69.5t76 198.5l2 100q-436 12 -436 -210z" />
<glyph unicode="&#xe3;" horiz-adv-x="1030" d="M104 223q0 297 584 299q6 152 -56.5 220.5t-162.5 68.5q-127 0 -188 -70q43 -23 43 -75q0 -33 -22.5 -58.5t-61.5 -25.5q-45 0 -71 30.5t-26 73.5q0 74 93.5 136.5t232.5 62.5q70 0 132.5 -19.5t115.5 -61.5t82.5 -117t27.5 -177l-8 -274q-2 -96 23 -164l104 -17v-55 h-225q-27 63 -29 129q-121 -143 -305 -143q-125 0 -204 64t-79 173zM162 1077q23 76 77 132.5t140 56.5q49 0 134 -38t140 -38q49 0 77 28.5t34 57.5l61 -19q-23 -76 -77 -132t-140 -56q-51 0 -136 38t-138 38q-49 0 -77 -29t-34 -57zM250 236q0 -74 47 -116t133 -42 q102 0 178 69.5t76 198.5l2 100q-436 12 -436 -210z" />
<glyph unicode="&#xe4;" horiz-adv-x="1030" d="M104 223q0 297 584 299q6 152 -56.5 220.5t-162.5 68.5q-127 0 -188 -70q43 -23 43 -75q0 -33 -22.5 -58.5t-61.5 -25.5q-45 0 -71 30.5t-26 73.5q0 74 93.5 136.5t232.5 62.5q70 0 132.5 -19.5t115.5 -61.5t82.5 -117t27.5 -177l-8 -274q-2 -96 23 -164l104 -17v-55 h-225q-27 63 -29 129q-121 -143 -305 -143q-125 0 -204 64t-79 173zM221 1180q0 43 26.5 71.5t69.5 28.5q41 0 68 -28.5t27 -71.5t-27 -72t-68 -29q-43 0 -69.5 29t-26.5 72zM250 236q0 -74 47 -116t133 -42q102 0 178 69.5t76 198.5l2 100q-436 12 -436 -210zM571 1180 q0 43 27 71.5t70 28.5q41 0 67.5 -28.5t26.5 -71.5t-26.5 -72t-67.5 -29q-43 0 -70 29t-27 72z" />
<glyph unicode="&#xe5;" horiz-adv-x="1030" d="M104 223q0 297 584 299q6 152 -56.5 220.5t-162.5 68.5q-127 0 -188 -70q43 -23 43 -75q0 -33 -22.5 -58.5t-61.5 -25.5q-45 0 -71 30.5t-26 73.5q0 74 93.5 136.5t232.5 62.5q70 0 132.5 -19.5t115.5 -61.5t82.5 -117t27.5 -177l-8 -274q-2 -96 23 -164l104 -17v-55 h-225q-27 63 -29 129q-121 -143 -305 -143q-125 0 -204 64t-79 173zM250 236q0 -74 47 -116t133 -42q102 0 178 69.5t76 198.5l2 100q-436 12 -436 -210zM274 1239q0 88 63.5 150.5t154 62.5t154 -62.5t63.5 -150.5t-63.5 -150.5t-154 -62.5t-154 62.5t-63.5 150.5z M377 1241.5q0 -61.5 32.5 -104.5t82 -43t82 43t32.5 104.5t-32.5 103t-82 41.5t-82 -41.5t-32.5 -103z" />
<glyph unicode="&#xe6;" horiz-adv-x="1615" d="M104 223q0 297 584 299q8 152 -54.5 220.5t-164.5 68.5q-127 0 -188 -70q43 -23 43 -75q0 -33 -22.5 -58.5t-61.5 -25.5q-45 0 -71 30.5t-26 73.5q0 74 93.5 136.5t232.5 62.5q217 0 311 -156q129 156 326 156q182 0 291.5 -123t109.5 -316h-684q0 -182 95.5 -279 t220.5 -97q147 0 276 123l47 -54q-143 -154 -334 -153q-240 0 -378 204q-164 -205 -363 -204q-125 0 -204 64.5t-79 172.5zM250 236q0 -74 47 -116t133 -42q102 0 178 69.5t76 198.5l2 100q-436 12 -436 -210zM825 522h537q-10 133 -80 212t-176 79q-94 0 -182.5 -79 t-98.5 -212z" />
<glyph unicode="&#xe7;" horiz-adv-x="993" d="M98 432q0 188 128 320.5t315 132.5q139 0 232 -62.5t93 -136.5q0 -43 -25.5 -73.5t-70.5 -30.5q-39 0 -61.5 25.5t-22.5 58.5q0 51 43 75q-66 70 -188 70q-133 0 -215 -110.5t-82 -272.5q0 -170 90 -264t211 -94q147 0 276 123l47 -54q-133 -143 -309 -153 q-45 -51 -45 -78q0 -29 51 -80q68 -63 68 -127q0 -72 -57.5 -118t-151.5 -46q-57 0 -97 24.5t-40 67.5q0 33 21.5 53.5t51.5 20.5q35 0 54.5 -27.5t15.5 -66.5q16 -10 39 -10q27 0 44 19.5t17 47.5q0 45 -51 96q-66 70 -65 111q0 55 67 117q-166 18 -274.5 144t-108.5 298z " />
<glyph unicode="&#xe8;" horiz-adv-x="1036" d="M98 444q0 184 127 312.5t301 128.5q182 0 292 -123t110 -316h-684q2 -182 96 -279t219 -97q147 0 277 123l47 -54q-143 -154 -334 -153q-188 0 -319.5 132t-131.5 326zM246 522h536q-10 133 -79.5 212t-176.5 79q-94 0 -182 -79t-98 -212zM334 1366q0 31 20.5 50.5 t48.5 19.5q39 0 64 -41l225 -369h-82l-250 283q-26 26 -26 57z" />
<glyph unicode="&#xe9;" horiz-adv-x="1036" d="M98 444q0 184 127 312.5t301 128.5q182 0 292 -123t110 -316h-684q2 -182 96 -279t219 -97q147 0 277 123l47 -54q-143 -154 -334 -153q-188 0 -319.5 132t-131.5 326zM246 522h536q-10 133 -79.5 212t-176.5 79q-94 0 -182 -79t-98 -212zM430 1026l223 365q33 57 76 57 q31 0 49.5 -17.5t18.5 -48.5q0 -37 -43 -84l-242 -272h-82z" />
<glyph unicode="&#xea;" horiz-adv-x="1036" d="M98 444q0 184 127 312.5t301 128.5q182 0 292 -123t110 -316h-684q2 -182 96 -279t219 -97q147 0 277 123l47 -54q-143 -154 -334 -153q-188 0 -319.5 132t-131.5 326zM246 522h536q-10 133 -79.5 212t-176.5 79q-94 0 -182 -79t-98 -212zM272 1026l234 383h49l233 -383 h-81l-177 201l-176 -201h-82z" />
<glyph unicode="&#xeb;" horiz-adv-x="1036" d="M98 444q0 184 127 312.5t301 128.5q182 0 292 -123t110 -316h-684q2 -182 96 -279t219 -97q147 0 277 123l47 -54q-143 -154 -334 -153q-188 0 -319.5 132t-131.5 326zM246 522h536q-10 133 -79.5 212t-176.5 79q-94 0 -182 -79t-98 -212zM260 1180q0 43 26.5 71.5 t69.5 28.5q41 0 68 -28.5t27 -71.5t-27 -72t-68 -29q-43 0 -69.5 29t-26.5 72zM610 1180q0 43 27 71.5t70 28.5q41 0 67.5 -28.5t26.5 -71.5t-26.5 -72t-67.5 -29q-43 0 -70 29t-27 72z" />
<glyph unicode="&#xec;" horiz-adv-x="608" d="M76 1366q0 31 20.5 50.5t48.5 19.5q39 0 64 -41l225 -369h-82l-250 283q-26 26 -26 57zM88 0v55l160 25v704h-160v70l299 25v-799l160 -25v-55h-459z" />
<glyph unicode="&#xed;" horiz-adv-x="608" d="M88 0v55l160 25v704h-160v70l299 25v-799l160 -25v-55h-459zM203 1026l223 365q33 57 76 57q31 0 49 -17.5t18 -48.5q0 -37 -43 -84l-241 -272h-82z" />
<glyph unicode="&#xee;" horiz-adv-x="608" d="M45 1026l234 383h49l233 -383h-82l-176 201l-176 -201h-82zM88 0v55l160 25v704h-160v70l299 25v-799l160 -25v-55h-459z" />
<glyph unicode="&#xef;" horiz-adv-x="608" d="M33 1180q0 43 26.5 71.5t69.5 28.5q41 0 67.5 -28.5t26.5 -71.5t-26.5 -72t-67.5 -29q-43 0 -69.5 29t-26.5 72zM88 0v55l160 25v704h-160v70l299 25v-799l160 -25v-55h-459zM383 1180q0 43 26.5 71.5t69.5 28.5q41 0 67.5 -28.5t26.5 -71.5t-26.5 -72t-67.5 -29 q-43 0 -69.5 29t-26.5 72z" />
<glyph unicode="&#xf0;" horiz-adv-x="1081" d="M98 412q0 174 120 296.5t288 122.5q102 0 181 -45t122 -102q-10 340 -152 494l-163 -148l-60 62l160 143q-74 57 -172 57q-66 0 -121 -37q27 -25 27 -63q0 -35 -24.5 -59.5t-59.5 -24.5q-43 0 -67.5 28.5t-24.5 67.5q0 72 75.5 120t182.5 48q134 0 249 -78l164 148 l60 -64l-154 -137q100 -90 162.5 -252t62.5 -387q0 -141 -28.5 -252.5t-72.5 -178.5t-105.5 -110t-121 -59t-122.5 -16q-170 0 -288 126t-118 300zM244 412q0 -145 77.5 -245.5t192.5 -100.5q119 0 199 100.5t80 245.5q0 143 -80 242.5t-199 99.5q-115 0 -192.5 -99.5 t-77.5 -242.5z" />
<glyph unicode="&#xf1;" horiz-adv-x="1171" d="M51 0v55l160 25v704h-160v70l297 25v-138q39 57 116 100.5t175 43.5q63 0 116.5 -16.5t102.5 -54.5t78 -112.5t29 -181.5v-440l161 -25v-55h-458v55l159 25v436q0 145 -67.5 204.5t-167.5 59.5q-106 0 -175 -68.5t-69 -185.5v-446l162 -25v-55h-459zM264 1077 q23 76 77 132.5t140 56.5q49 0 134 -38t141 -38q49 0 76.5 28.5t33.5 57.5l62 -19q-23 -76 -77 -132t-140 -56q-51 0 -136.5 38t-138.5 38q-49 0 -76.5 -29t-33.5 -57z" />
<glyph unicode="&#xf2;" horiz-adv-x="1064" d="M98 436q0 184 127 316.5t307 132.5q178 0 306.5 -132.5t128.5 -316.5q0 -186 -128 -318t-307 -132q-180 0 -307 132t-127 318zM244 438q0 -160 83 -269.5t205 -109.5q121 0 205 111t84 268.5t-84 266t-205 108.5q-123 0 -205.5 -108.5t-82.5 -266.5zM315 1366 q0 31 20.5 50.5t49.5 19.5q39 0 64 -41l225 -369h-82l-250 283q-27 26 -27 57z" />
<glyph unicode="&#xf3;" horiz-adv-x="1064" d="M98 436q0 184 127 316.5t307 132.5q178 0 306.5 -132.5t128.5 -316.5q0 -186 -128 -318t-307 -132q-180 0 -307 132t-127 318zM244 438q0 -160 83 -269.5t205 -109.5q121 0 205 111t84 268.5t-84 266t-205 108.5q-123 0 -205.5 -108.5t-82.5 -266.5zM412 1026l223 365 q33 57 76 57q31 0 49 -17.5t18 -48.5q0 -37 -43 -84l-241 -272h-82z" />
<glyph unicode="&#xf4;" horiz-adv-x="1064" d="M98 436q0 184 127 316.5t307 132.5q178 0 306.5 -132.5t128.5 -316.5q0 -186 -128 -318t-307 -132q-180 0 -307 132t-127 318zM244 438q0 -160 83 -269.5t205 -109.5q121 0 205 111t84 268.5t-84 266t-205 108.5q-123 0 -205.5 -108.5t-82.5 -266.5zM274 1026l234 383h49 l234 -383h-82l-177 201l-176 -201h-82z" />
<glyph unicode="&#xf5;" horiz-adv-x="1064" d="M98 436q0 184 127 316.5t307 132.5q178 0 306.5 -132.5t128.5 -316.5q0 -186 -128 -318t-307 -132q-180 0 -307 132t-127 318zM223 1077q23 76 77 132.5t140 56.5q49 0 134 -38t141 -38q49 0 76.5 28.5t33.5 57.5l62 -19q-23 -76 -77 -132t-140 -56q-51 0 -136.5 38 t-138.5 38q-49 0 -76.5 -29t-33.5 -57zM244 438q0 -160 83 -269.5t205 -109.5q121 0 205 111t84 268.5t-84 266t-205 108.5q-123 0 -205.5 -108.5t-82.5 -266.5z" />
<glyph unicode="&#xf6;" horiz-adv-x="1064" d="M98 436q0 184 127 316.5t307 132.5q178 0 306.5 -132.5t128.5 -316.5q0 -186 -128 -318t-307 -132q-180 0 -307 132t-127 318zM244 438q0 -160 83 -269.5t205 -109.5q121 0 205 111t84 268.5t-84 266t-205 108.5q-123 0 -205.5 -108.5t-82.5 -266.5zM262 1180 q0 43 26.5 71.5t69.5 28.5q41 0 68 -28.5t27 -71.5t-27 -72t-68 -29q-43 0 -69.5 29t-26.5 72zM612 1180q0 43 27 71.5t70 28.5q41 0 67.5 -28.5t26.5 -71.5t-26.5 -72t-67.5 -29q-43 0 -70 29t-27 72z" />
<glyph unicode="&#xf7;" horiz-adv-x="1228" d="M162 453v127h905v-127h-905zM514 121q0 45 27.5 74.5t72.5 29.5q43 0 71 -29.5t28 -74.5t-28 -75t-71 -30q-45 0 -72.5 30t-27.5 75zM514 911q0 45 27.5 75t72.5 30q43 0 71 -30t28 -75t-28 -74.5t-71 -29.5q-45 0 -72.5 29.5t-27.5 74.5z" />
<glyph unicode="&#xf8;" horiz-adv-x="1064" d="M80 -25l133 156q-115 127 -115 305q0 184 127 316.5t307 132.5q135 0 252 -86l131 151l66 -55l-133 -154q119 -129 119 -305q0 -186 -128 -318t-307 -132q-143 0 -258 88l-131 -154zM244 438q0 -117 49 -215l428 500q-80 90 -189 90q-123 0 -205.5 -108.5t-82.5 -266.5z M342 152q80 -92 190 -93q121 0 205 110.5t84 268.5q0 119 -51 211z" />
<glyph unicode="&#xf9;" horiz-adv-x="1150" d="M25 784v70l299 25v-525q0 -145 67.5 -204.5t167.5 -59.5q104 0 173 69.5t69 186.5v438h-160v70l299 25v-799l160 -25v-55h-299v133q-39 -59 -115 -103t-174 -44q-63 0 -116.5 16t-103.5 54t-79 113t-29 181v434h-159zM330 1366q0 31 20.5 50.5t48.5 19.5q39 0 64 -41 l225 -369h-82l-250 283q-26 26 -26 57z" />
<glyph unicode="&#xfa;" horiz-adv-x="1150" d="M25 784v70l299 25v-525q0 -145 67.5 -204.5t167.5 -59.5q104 0 173 69.5t69 186.5v438h-160v70l299 25v-799l160 -25v-55h-299v133q-39 -59 -115 -103t-174 -44q-63 0 -116.5 16t-103.5 54t-79 113t-29 181v434h-159zM444 1026l224 365q33 57 75 57q31 0 49.5 -17.5 t18.5 -48.5q0 -37 -43 -84l-242 -272h-82z" />
<glyph unicode="&#xfb;" horiz-adv-x="1150" d="M25 784v70l299 25v-525q0 -145 67.5 -204.5t167.5 -59.5q104 0 173 69.5t69 186.5v438h-160v70l299 25v-799l160 -25v-55h-299v133q-39 -59 -115 -103t-174 -44q-63 0 -116.5 16t-103.5 54t-79 113t-29 181v434h-159zM289 1026l233 383h49l234 -383h-82l-176 201 l-176 -201h-82z" />
<glyph unicode="&#xfc;" horiz-adv-x="1150" d="M25 784v70l299 25v-525q0 -145 67.5 -204.5t167.5 -59.5q104 0 173 69.5t69 186.5v438h-160v70l299 25v-799l160 -25v-55h-299v133q-39 -59 -115 -103t-174 -44q-63 0 -116.5 16t-103.5 54t-79 113t-29 181v434h-159zM276 1180q0 43 27 71.5t70 28.5q41 0 67.5 -28.5 t26.5 -71.5t-26.5 -72t-67.5 -29q-43 0 -70 29t-27 72zM627 1180q0 43 26.5 71.5t69.5 28.5q41 0 67.5 -28.5t26.5 -71.5t-26.5 -72t-67.5 -29q-43 0 -69.5 29t-26.5 72z" />
<glyph unicode="&#xfd;" horiz-adv-x="1075" d="M-27 -276q0 41 27 68.5t68 27.5q37 0 61.5 -24.5t24.5 -59.5q0 -25 -9 -39q27 -10 52 -10q41 0 78.5 22.5t71.5 70.5t53.5 82t52.5 95l34 68l-362 766l-150 24v55h463v-55l-153 -22l282 -605l277 605l-154 22v55h410v-55l-150 -24l-440 -900q-145 -301 -348 -301 q-78 0 -133.5 38t-55.5 96zM506 1026l223 365q33 57 76 57q31 0 49 -17.5t18 -48.5q0 -37 -43 -84l-241 -272h-82z" />
<glyph unicode="&#xfe;" horiz-adv-x="1153" d="M51 -340l160 25v1658h-160v70l295 25v-697q41 63 121 103.5t176 40.5q174 0 293 -127t119 -322q0 -186 -120 -318t-292 -132q-92 0 -173 40t-124 103v-440l178 -29v-55h-473v55zM346 436q0 -172 78 -274.5t207 -102.5q119 0 198.5 110t79.5 267q0 160 -79.5 268.5 t-198.5 108.5q-129 0 -207 -104.5t-78 -272.5z" />
<glyph unicode="&#xff;" horiz-adv-x="1075" d="M-27 -276q0 41 27 68.5t68 27.5q37 0 61.5 -24.5t24.5 -59.5q0 -25 -9 -39q27 -10 52 -10q41 0 78.5 22.5t71.5 70.5t53.5 82t52.5 95l34 68l-362 766l-150 24v55h463v-55l-153 -22l282 -605l277 605l-154 22v55h410v-55l-150 -24l-440 -900q-145 -301 -348 -301 q-78 0 -133.5 38t-55.5 96zM297 1180q0 43 26.5 71.5t69.5 28.5q41 0 67.5 -28.5t26.5 -71.5t-26.5 -72t-67.5 -29q-43 0 -69.5 29t-26.5 72zM647 1180q0 43 26.5 71.5t69.5 28.5q41 0 68 -28.5t27 -71.5t-27 -72t-68 -29q-43 0 -69.5 29t-26.5 72z" />
<glyph unicode="&#x152;" horiz-adv-x="2226" d="M127 698q0 307 210 512t556 205q84 0 261 -8t249 -8h625v-312h-56l-41 211l-674 13v-559l586 4v-97l-586 5v-576l707 12l43 222h61l-20 -322h-645q-72 0 -249 -8t-261 -8q-346 0 -556 204.5t-210 509.5zM297 698q0 -274 170 -448t463 -174q88 0 170 12v1223 q-82 12 -170 12q-293 0 -463 -174t-170 -451z" />
<glyph unicode="&#x153;" horiz-adv-x="1748" d="M98 436q0 184 127 316.5t307 132.5q109 0 202 -53.5t153 -139.5q55 88 148 140.5t204 52.5q182 0 291.5 -123t109.5 -316h-682q0 -182 94.5 -279t219.5 -97q154 0 276 123l47 -54q-143 -154 -333 -153q-117 0 -215.5 53t-155.5 143q-59 -90 -152.5 -143t-206.5 -53 q-180 0 -307 132t-127 318zM244 438q0 -160 83 -269.5t205 -109.5q121 0 205 111t84 268.5t-84 266t-205 108.5q-123 0 -205.5 -108.5t-82.5 -266.5zM961 522h534q-10 133 -79.5 212t-176.5 79q-94 0 -181 -79t-97 -212z" />
<glyph unicode="&#x178;" horiz-adv-x="1327" d="M-66 1343v56h558v-56l-187 -28l393 -594l373 594l-186 28v56h508v-56l-185 -28l-467 -692v-535l207 -33v-55h-571v55l207 33v535l-469 692zM420 1606q0 45 27.5 74.5t72.5 29.5q43 0 70.5 -29.5t27.5 -74.5t-27.5 -75t-70.5 -30q-45 0 -72.5 30t-27.5 75zM778 1606 q0 45 28 74.5t73 29.5q43 0 70.5 -29.5t27.5 -74.5t-27.5 -75t-70.5 -30q-45 0 -73 30t-28 75z" />
<glyph unicode="&#x2c6;" horiz-adv-x="557" d="M20 1026l234 383h49l234 -383h-82l-176 201l-177 -201h-82z" />
<glyph unicode="&#x2dc;" horiz-adv-x="557" d="M-51 1077q23 76 77 132.5t140 56.5q49 0 134 -38t140 -38q49 0 77 28.5t34 57.5l61 -19q-23 -76 -77 -132t-140 -56q-51 0 -136 38t-138 38q-49 0 -77 -29t-34 -57z" />
<glyph unicode="&#x2000;" horiz-adv-x="994" />
<glyph unicode="&#x2001;" horiz-adv-x="1989" />
<glyph unicode="&#x2002;" horiz-adv-x="994" />
<glyph unicode="&#x2003;" horiz-adv-x="1989" />
<glyph unicode="&#x2004;" horiz-adv-x="663" />
<glyph unicode="&#x2005;" horiz-adv-x="497" />
<glyph unicode="&#x2006;" horiz-adv-x="331" />
<glyph unicode="&#x2007;" horiz-adv-x="331" />
<glyph unicode="&#x2008;" horiz-adv-x="248" />
<glyph unicode="&#x2009;" horiz-adv-x="397" />
<glyph unicode="&#x200a;" horiz-adv-x="110" />
<glyph unicode="&#x2010;" horiz-adv-x="706" d="M98 397v133h510v-133h-510z" />
<glyph unicode="&#x2011;" horiz-adv-x="706" d="M98 397v133h510v-133h-510z" />
<glyph unicode="&#x2012;" horiz-adv-x="706" d="M98 397v133h510v-133h-510z" />
<glyph unicode="&#x2013;" horiz-adv-x="1024" d="M0 403v121h1024v-121h-1024z" />
<glyph unicode="&#x2014;" horiz-adv-x="2048" d="M0 403v121h2048v-121h-2048z" />
<glyph unicode="&#x2018;" horiz-adv-x="526" d="M137 1090q0 96 76 206.5t166 171.5l31 -38q-33 -23 -67 -56t-68.5 -98.5t-34.5 -132.5v-13q59 0 92 -27.5t33 -70.5q0 -41 -30 -66.5t-67 -25.5q-63 0 -97 43t-34 107z" />
<glyph unicode="&#x2019;" horiz-adv-x="526" d="M117 948q33 23 66.5 55.5t68.5 98t35 133.5v12q-59 0 -92 28t-33 71q0 41 29.5 66.5t66.5 25.5q63 0 97 -43t34 -107q0 -96 -76 -207t-166 -172z" />
<glyph unicode="&#x201a;" horiz-adv-x="567" d="M137 -297q33 23 67 55.5t68.5 98t34.5 133.5v12q-59 0 -92 27.5t-33 70.5q0 41 30 67t67 26q63 0 97 -43.5t34 -106.5q0 -96 -76 -207t-166 -172z" />
<glyph unicode="&#x201c;" horiz-adv-x="872" d="M137 1090q0 96 76 206.5t166 171.5l31 -38q-33 -23 -67 -56t-68.5 -98.5t-34.5 -132.5v-13q59 0 92 -27.5t33 -70.5q0 -41 -30 -66.5t-67 -25.5q-63 0 -97 43t-34 107zM483 1090q0 96 76 206.5t166 171.5l31 -38q-33 -23 -67 -56t-68.5 -98.5t-34.5 -132.5v-13 q59 0 92 -27.5t33 -70.5q0 -41 -30 -66.5t-67 -25.5q-63 0 -97 43t-34 107z" />
<glyph unicode="&#x201d;" horiz-adv-x="872" d="M117 948q33 23 66.5 55.5t68.5 98t35 133.5v12q-59 0 -92 28t-33 71q0 41 29.5 66.5t66.5 25.5q63 0 97 -43t34 -107q0 -96 -76 -207t-166 -172zM463 948q33 23 66.5 55.5t68.5 98t35 133.5v12q-59 0 -92 28t-33 71q0 41 29.5 66.5t66.5 25.5q63 0 97 -43t34 -107 q0 -96 -75.5 -207t-165.5 -172z" />
<glyph unicode="&#x201e;" horiz-adv-x="913" d="M137 -297q33 23 67 55.5t68.5 98t34.5 133.5v12q-59 0 -92 27.5t-33 70.5q0 41 30 67t67 26q63 0 97 -43.5t34 -106.5q0 -96 -76 -207t-166 -172zM483 -297q33 23 67 55.5t68.5 98t34.5 133.5v12q-59 0 -92 27.5t-33 70.5q0 41 30 67t67 26q63 0 97 -43.5t34 -106.5 q0 -96 -76 -207t-166 -172z" />
<glyph unicode="&#x2022;" horiz-adv-x="1024" d="M170 688q0 139 100.5 239.5t239.5 100.5q141 0 241.5 -99.5t100.5 -240.5t-100.5 -240.5t-241.5 -99.5q-139 0 -239.5 100.5t-100.5 239.5z" />
<glyph unicode="&#x2026;" horiz-adv-x="2048" d="M240 90q0 47 28.5 77t73.5 30t72.5 -30t27.5 -77t-27.5 -76.5t-72.5 -29.5t-73.5 29.5t-28.5 76.5zM922 90q0 47 28.5 77t73.5 30t72.5 -30t27.5 -77t-27.5 -76.5t-72.5 -29.5t-73.5 29.5t-28.5 76.5zM1604 90q0 47 28.5 77t73.5 30t72.5 -30t27.5 -77t-27.5 -76.5 t-72.5 -29.5t-73.5 29.5t-28.5 76.5z" />
<glyph unicode="&#x202f;" horiz-adv-x="397" />
<glyph unicode="&#x2039;" horiz-adv-x="645" d="M72 451l405 356l45 -45l-262 -311l262 -312l-45 -45z" />
<glyph unicode="&#x203a;" horiz-adv-x="645" d="M123 139l260 312l-260 311l45 45l405 -356l-405 -357z" />
<glyph unicode="&#x205f;" horiz-adv-x="497" />
<glyph unicode="&#x20ac;" d="M61 506v100h175q-2 29 -3 76q0 33 5 102h-177v101h193q49 221 188 358t332 137q160 0 265.5 -73.5t105.5 -159.5q0 -49 -29 -83t-78 -34q-43 0 -68.5 27.5t-25.5 66.5q0 57 53 84q-78 88 -227 88q-135 0 -228 -112.5t-128 -298.5h479v-101h-492q-4 -37 -4 -102 q0 -47 2 -76h494v-100h-483q33 -199 125 -316.5t235 -117.5q80 0 153.5 30.5t99.5 51t67 57.5l51 -55q-158 -172 -383 -172q-201 0 -333 143t-175 379h-189z" />
<glyph unicode="&#x2122;" horiz-adv-x="1933" d="M102 1223v176h643v-176h-47l-22 106l-203 4v-592l105 -16v-47h-308v45l103 18v592l-201 -4l-25 -106h-45zM862 678v45l94 16l25 594l-102 19v47h198l230 -477l229 477h199v-47l-103 -19l25 -594q14 -2 46 -8t46 -8v-45h-287v45l92 16l-20 498l-221 -471h-45l-224 467 l-14 -494l92 -16v-45h-260z" />
<glyph unicode="&#x25fc;" horiz-adv-x="870" d="M0 0v870h870v-870h-870z" />
</font>
</defs>
</svg>
