<?xml version="1.0" encoding="UTF-8" standalone="no"?>
<svg width="489px" height="53px" viewBox="0 0 489 53" version="1.1" xmlns="http://www.w3.org/2000/svg" xmlns:xlink="http://www.w3.org/1999/xlink" xmlns:sketch="http://www.bohemiancoding.com/sketch/ns">
    <!-- Generator: Sketch 3.5.2 (25235) - http://www.bohemiancoding.com/sketch -->
    <title>CONDUCTOR</title>
    <desc>Created with Sketch.</desc>
    <defs></defs>
    <g id="Page-1" stroke="none" stroke-width="1" fill="none" fill-rule="evenodd" sketch:type="MSPage">
        <path d="M26.016,47.752 C31.2480262,47.752 36.3359753,45.5920216 41.28,41.272 L43.8,44.152 C41.5439887,46.4080113 38.7960162,48.3759916 35.556,50.056 C32.3159838,51.7360084 28.9680173,52.576 25.512,52.576 C18.4559647,52.576 12.4440248,50.1160246 7.476,45.196 C2.50797516,40.2759754 0.024,34.120037 0.024,26.728 C0.024,19.3839633 2.45997564,13.2280248 7.332,8.26 C12.2040244,3.29197516 18.335963,0.808 25.728,0.808 C30.7680252,0.808 35.0159827,1.99598812 38.472,4.372 C41.9280173,6.74801188 43.656,9.20798728 43.656,11.752 C43.656,13.2400074 43.2240043,14.4999948 42.36,15.532 C41.4959957,16.5640052 40.3200074,17.08 38.832,17.08 C37.439993,17.08 36.3360041,16.6480043 35.52,15.784 C34.7039959,14.9199957 34.296,13.888006 34.296,12.688 C34.296,11.0559918 35.0159928,9.71200528 36.456,8.656 C33.5759856,6.0159868 30.0000214,4.696 25.728,4.696 C23.9039909,4.696 22.0320096,5.13999556 20.112,6.028 C18.1919904,6.91600444 16.3800085,8.21199148 14.676,9.916 C12.9719915,11.6200085 11.5680055,13.9359854 10.464,16.864 C9.35999448,19.7920146 8.808,23.0799818 8.808,26.728 C8.808,33.1120319 10.511983,38.2119809 13.92,42.028 C17.328017,45.8440191 21.3599767,47.752 26.016,47.752 L26.016,47.752 Z M102.696,26.728 C102.696,33.9760362 100.248024,40.095975 95.352,45.088 C90.4559755,50.080025 84.2640374,52.576 76.776,52.576 C69.2879626,52.576 63.0960245,50.080025 58.2,45.088 C53.3039755,40.095975 50.856,33.9760362 50.856,26.728 C50.856,19.4319635 53.3039755,13.288025 58.2,8.296 C63.0960245,3.30397504 69.2879626,0.808 76.776,0.808 C84.2640374,0.808 90.4559755,3.30397504 95.352,8.296 C100.248024,13.288025 102.696,19.4319635 102.696,26.728 L102.696,26.728 Z M93.84,26.728 C93.84,20.5839693 92.2080163,15.3760214 88.944,11.104 C85.6799837,6.83197864 81.6240242,4.696 76.776,4.696 C71.8799755,4.696 67.8000163,6.81997876 64.536,11.068 C61.2719837,15.3160212 59.64,20.535969 59.64,26.728 C59.64,32.8720307 61.2719837,38.0559789 64.536,42.28 C67.8000163,46.5040211 71.8799755,48.616 76.776,48.616 C81.6240242,48.616 85.6799837,46.5040211 88.944,42.28 C92.2080163,38.0559789 93.84,32.8720307 93.84,26.728 L93.84,26.728 Z M108.528,1.384 L121.416,1.384 L151.296,38.032 L150.72,5.272 L144.168,4.264 L144.168,1.384 L161.952,1.384 L161.952,4.264 L155.4,5.272 L155.4,52 L152.016,52 L119.184,11.68 L119.688,48.112 L126.312,49.12 L126.312,52 L108.528,52 L108.528,49.12 L115.08,48.112 L115.08,5.272 L108.528,4.264 L108.528,1.384 Z M167.064,1.384 L191.472,1.384 C196.080023,1.384 200.111983,2.0439934 203.568,3.364 C207.024017,4.6840066 209.78399,6.51998824 211.848,8.872 C213.91201,11.2240118 215.447995,13.899985 216.456,16.9 C217.464005,19.900015 217.968,23.1759822 217.968,26.728 C217.968,34.2160374 215.760022,40.2999766 211.344,44.98 C206.927978,49.6600234 200.616041,52 192.408,52 L167.064,52 L167.064,49.12 L173.616,48.112 L173.616,5.272 L167.064,4.264 L167.064,1.384 Z M209.184,26.728 C209.184,20.1999674 207.420018,15.0040193 203.892,11.14 C200.363982,7.27598068 195.62403,5.344 189.672,5.344 L181.968,5.344 L181.968,48.04 L189.672,48.04 C195.62403,48.04 200.363982,46.1080193 203.892,42.244 C207.420018,38.3799807 209.184,33.2080324 209.184,26.728 L209.184,26.728 Z M279.024,4.264 L272.472,5.272 L272.472,31.192 C272.472,37.9600338 270.624018,43.2159813 266.928,46.96 C263.231982,50.7040187 258.120033,52.576 251.592,52.576 C245.015967,52.576 239.880018,50.7040187 236.184,46.96 C232.487982,43.2159813 230.64,37.9600338 230.64,31.192 L230.64,5.272 L224.088,4.264 L224.088,1.384 L245.544,1.384 L245.544,4.264 L238.992,5.272 L238.992,32.632 C238.992,37.6720252 240.02399,41.5839861 242.088,44.368 C244.15201,47.1520139 247.319979,48.544 251.592,48.544 C255.816021,48.544 258.95999,47.1520139 261.024,44.368 C263.08801,41.5839861 264.12,37.6720252 264.12,32.632 L264.12,5.272 L257.568,4.264 L257.568,1.384 L279.024,1.384 L279.024,4.264 Z M310.416,47.752 C315.648026,47.752 320.735975,45.5920216 325.68,41.272 L328.2,44.152 C325.943989,46.4080113 323.196016,48.3759916 319.956,50.056 C316.715984,51.7360084 313.368017,52.576 309.912,52.576 C302.855965,52.576 296.844025,50.1160246 291.876,45.196 C286.907975,40.2759754 284.424,34.120037 284.424,26.728 C284.424,19.3839633 286.859976,13.2280248 291.732,8.26 C296.604024,3.29197516 302.735963,0.808 310.128,0.808 C315.168025,0.808 319.415983,1.99598812 322.872,4.372 C326.328017,6.74801188 328.056,9.20798728 328.056,11.752 C328.056,13.2400074 327.624004,14.4999948 326.76,15.532 C325.895996,16.5640052 324.720007,17.08 323.232,17.08 C321.839993,17.08 320.736004,16.6480043 319.92,15.784 C319.103996,14.9199957 318.696,13.888006 318.696,12.688 C318.696,11.0559918 319.415993,9.71200528 320.856,8.656 C317.975986,6.0159868 314.400021,4.696 310.128,4.696 C308.303991,4.696 306.43201,5.13999556 304.512,6.028 C302.59199,6.91600444 300.780009,8.21199148 299.076,9.916 C297.371991,11.6200085 295.968006,13.9359854 294.864,16.864 C293.759994,19.7920146 293.208,23.0799818 293.208,26.728 C293.208,33.1120319 294.911983,38.2119809 298.32,42.028 C301.728017,45.8440191 305.759977,47.752 310.416,47.752 L310.416,47.752 Z M367.656,52 L344.76,52 L344.76,49.12 L352.032,47.968 L352.032,5.344 L338.928,5.632 L337.2,13.768 L334.392,13.768 L334.392,1.384 L378.024,1.384 L378.024,13.768 L375.216,13.768 L373.56,5.632 L360.384,5.344 L360.384,47.968 L367.656,49.12 L367.656,52 Z M432.744,26.728 C432.744,33.9760362 430.296024,40.095975 425.4,45.088 C420.503976,50.080025 414.312037,52.576 406.824,52.576 C399.335963,52.576 393.144024,50.080025 388.248,45.088 C383.351976,40.095975 380.904,33.9760362 380.904,26.728 C380.904,19.4319635 383.351976,13.288025 388.248,8.296 C393.144024,3.30397504 399.335963,0.808 406.824,0.808 C414.312037,0.808 420.503976,3.30397504 425.4,8.296 C430.296024,13.288025 432.744,19.4319635 432.744,26.728 L432.744,26.728 Z M423.888,26.728 C423.888,20.5839693 422.256016,15.3760214 418.992,11.104 C415.727984,6.83197864 411.672024,4.696 406.824,4.696 C401.927976,4.696 397.848016,6.81997876 394.584,11.068 C391.319984,15.3160212 389.688,20.535969 389.688,26.728 C389.688,32.8720307 391.319984,38.0559789 394.584,42.28 C397.848016,46.5040211 401.927976,48.616 406.824,48.616 C411.672024,48.616 415.727984,46.5040211 418.992,42.28 C422.256016,38.0559789 423.888,32.8720307 423.888,26.728 L423.888,26.728 Z M467.88,30.544 L480.912,48.04 L488.328,49.12 L488.328,52 L473.784,52 L458.16,30.688 L453.48,30.688 L453.48,48.112 L460.032,49.12 L460.032,52 L438.576,52 L438.576,49.12 L445.128,48.112 L445.128,5.272 L438.576,4.264 L438.576,1.384 L464.928,1.384 C470.208026,1.384 474.419984,2.69198692 477.564,5.308 C480.708016,7.92401308 482.28,11.3199791 482.28,15.496 C482.28,19.6240206 481.020013,23.0319866 478.5,25.72 C475.979987,28.4080134 472.440023,30.0159974 467.88,30.544 L467.88,30.544 Z M453.48,26.656 L459.816,26.656 C463.992021,26.656 467.327988,25.7200094 469.824,23.848 C472.320012,21.9759906 473.568,19.3120173 473.568,15.856 C473.568,12.6879842 472.392012,10.1440096 470.04,8.224 C467.687988,6.3039904 464.52002,5.344 460.536,5.344 L453.48,5.344 L453.48,26.656 Z" id="CONDUCTOR" fill="#FFFFFF" sketch:type="MSShapeGroup"></path>
    </g>
</svg>