<?xml version="1.0" encoding="UTF-8" standalone="no"?>
<svg width="953px" height="93px" viewBox="0 0 953 93" version="1.1" xmlns="http://www.w3.org/2000/svg" xmlns:xlink="http://www.w3.org/1999/xlink" xmlns:sketch="http://www.bohemiancoding.com/sketch/ns">
    <!-- Generator: Sketch 3.5.2 (25235) - http://www.bohemiancoding.com/sketch -->
    <title>We’re Conductor.</title>
    <desc>Created with Sketch.</desc>
    <defs></defs>
    <g id="Page-1" stroke="none" stroke-width="1" fill="none" fill-rule="evenodd" sketch:type="MSPage">
        <path d="M27.184,9.1 L44.572,67.438 L66.244,5.698 L72.166,5.698 L95.98,67.438 L113.368,9.226 L102.154,7.462 L102.154,2.422 L132.772,2.422 L132.772,7.462 L122.062,9.226 L95.98,92.008 L90.058,92.008 L65.992,29.764 L43.186,92.008 L37.264,92.008 L11.182,9.226 L0.724,7.462 L0.724,2.422 L38.398,2.422 L38.398,7.462 L27.184,9.1 Z M178.888,81.55 C172.587968,88.4380344 165.028044,91.882 156.208,91.882 C148.14396,91.882 141.445027,89.0890279 136.111,83.503 C130.776973,77.9169721 128.11,70.8820424 128.11,62.398 C128.11,54.5019605 130.818973,47.8030275 136.237,42.301 C141.655027,36.7989725 148.101963,34.048 155.578,34.048 C163.474039,34.048 169.878975,36.7779727 174.793,42.238 C179.707025,47.6980273 182.164,54.627958 182.164,63.028 L140.71,63.028 C140.71,70.2520361 142.389983,75.6489821 145.75,79.219 C149.110017,82.7890178 153.183976,84.574 157.972,84.574 C163.852029,84.574 169.605972,82.1800239 175.234,77.392 L178.888,81.55 Z M141.214,56.728 L169.564,56.728 C169.143998,51.6879748 167.695012,47.6770149 165.217,44.695 C162.738988,41.7129851 159.694018,40.222 156.082,40.222 C152.469982,40.222 149.215014,41.6709855 146.317,44.569 C143.418986,47.4670145 141.718003,51.519974 141.214,56.728 L141.214,56.728 Z M192.748,34.426 L189.598,30.898 C196.318034,26.6139786 199.678,21.3220315 199.678,15.022 L199.678,14.77 C197.073987,14.77 195.058007,14.0980067 193.63,12.754 C192.201993,11.4099933 191.488,9.77200966 191.488,7.84 C191.488,5.90799034 192.201993,4.3120063 193.63,3.052 C195.058007,1.7919937 196.611992,1.162 198.292,1.162 C201.232015,1.162 203.520992,2.16998992 205.159,4.186 C206.797008,6.20201008 207.616,8.63798572 207.616,11.494 C207.616,15.6100206 206.146015,19.8309784 203.206,24.157 C200.265985,28.4830216 196.78002,31.9059874 192.748,34.426 L192.748,34.426 Z M251.086,42.238 C246.465977,41.9019983 242.812013,43.2459849 240.124,46.27 C237.435987,49.2940151 236.092,52.9899782 236.092,57.358 L236.092,84.448 L246.55,85.96 L246.55,91 L214.798,91 L214.798,85.96 L224.248,84.448 L224.248,42.112 L214.294,42.112 L214.294,36.19 L235.714,34.3 L235.714,42.364 C241.258028,36.8199723 247.095969,34.048 253.228,34.048 C256.084014,34.048 258.708988,34.8039924 261.103,36.316 C263.497012,37.8280076 264.694,40.0959849 264.694,43.12 C264.694,45.3040109 264.043007,47.1519924 262.741,48.664 C261.438993,50.1760076 259.654011,50.932 257.386,50.932 C255.285989,50.932 253.669006,50.2810065 252.535,48.979 C251.400994,47.6769935 250.834,46.1440088 250.834,44.38 C250.834,43.6239962 250.917999,42.9100034 251.086,42.238 L251.086,42.238 Z M318.496,81.55 C312.195968,88.4380344 304.636044,91.882 295.816,91.882 C287.75196,91.882 281.053027,89.0890279 275.719,83.503 C270.384973,77.9169721 267.718,70.8820424 267.718,62.398 C267.718,54.5019605 270.426973,47.8030275 275.845,42.301 C281.263027,36.7989725 287.709963,34.048 295.186,34.048 C303.082039,34.048 309.486975,36.7779727 314.401,42.238 C319.315025,47.6980273 321.772,54.627958 321.772,63.028 L280.318,63.028 C280.318,70.2520361 281.997983,75.6489821 285.358,79.219 C288.718017,82.7890178 292.791976,84.574 297.58,84.574 C303.460029,84.574 309.213972,82.1800239 314.842,77.392 L318.496,81.55 Z M280.822,56.728 L309.172,56.728 C308.751998,51.6879748 307.303012,47.6770149 304.825,44.695 C302.346988,41.7129851 299.302018,40.222 295.69,40.222 C292.077982,40.222 288.823014,41.6709855 285.925,44.569 C283.026986,47.4670145 281.326003,51.519974 280.822,56.728 L280.822,56.728 Z M408.208,83.566 C417.364046,83.566 426.267957,79.7860378 434.92,72.226 L439.33,77.266 C435.38198,81.2140197 430.573028,84.6579853 424.903,87.598 C419.232972,90.5380147 413.37403,92.008 407.326,92.008 C394.977938,92.008 384.457043,87.7030431 375.763,79.093 C367.068957,70.482957 362.722,59.7100647 362.722,46.774 C362.722,33.9219357 366.984957,23.1490435 375.511,14.455 C384.037043,5.76095653 394.767935,1.414 407.704,1.414 C416.524044,1.414 423.95797,3.49297921 430.006,7.651 C436.05403,11.8090208 439.078,16.1139777 439.078,20.566 C439.078,23.170013 438.322008,25.374991 436.81,27.181 C435.297992,28.987009 433.240013,29.89 430.636,29.89 C428.199988,29.89 426.268007,29.1340076 424.84,27.622 C423.411993,26.1099924 422.698,24.3040105 422.698,22.204 C422.698,19.3479857 423.957987,16.9960092 426.478,15.148 C421.437975,10.5279769 415.180037,8.218 407.704,8.218 C404.511984,8.218 401.236017,8.99499223 397.876,10.549 C394.515983,12.1030078 391.345015,14.3709851 388.363,17.353 C385.380985,20.3350149 382.92401,24.3879744 380.992,29.512 C379.05999,34.6360256 378.094,40.3899681 378.094,46.774 C378.094,57.9460559 381.07597,66.8709666 387.04,73.549 C393.00403,80.2270334 400.059959,83.566 408.208,83.566 L408.208,83.566 Z M506.362,63.028 C506.362,71.1760407 503.737026,78.0219723 498.487,83.566 C493.236974,89.1100277 486.58004,91.882 478.516,91.882 C470.367959,91.882 463.669026,89.1100277 458.419,83.566 C453.168974,78.0219723 450.544,71.1760407 450.544,63.028 C450.544,54.9639597 453.168974,48.1180281 458.419,42.49 C463.669026,36.8619719 470.367959,34.048 478.516,34.048 C486.58004,34.048 493.236974,36.8619719 498.487,42.49 C503.737026,48.1180281 506.362,54.9639597 506.362,63.028 L506.362,63.028 Z M493.888,63.028 C493.888,56.6439681 492.439014,51.2680218 489.541,46.9 C486.642986,42.5319782 482.968022,40.348 478.516,40.348 C473.979977,40.348 470.284014,42.5319782 467.428,46.9 C464.571986,51.2680218 463.144,56.6439681 463.144,63.028 C463.144,69.4120319 464.571986,74.7669784 467.428,79.093 C470.284014,83.4190216 473.979977,85.582 478.516,85.582 C482.968022,85.582 486.642986,83.4190216 489.541,79.093 C492.439014,74.7669784 493.888,69.4120319 493.888,63.028 L493.888,63.028 Z M512.284,36.19 L533.704,34.3 L533.704,42.364 C539.248028,36.8199723 545.295967,34.048 551.848,34.048 C557.560029,34.048 562.43198,35.8539819 566.464,39.466 C570.49602,43.0780181 572.512,49.1679572 572.512,57.736 L572.512,84.448 L582.088,85.96 L582.088,91 L551.218,91 L551.218,85.96 L560.794,84.448 L560.794,57.862 C560.794,52.4019727 559.513013,48.5590111 556.951,46.333 C554.388987,44.1069889 551.260018,42.994 547.564,42.994 C543.61598,42.994 540.382013,44.2749872 537.862,46.837 C535.341987,49.3990128 534.082,52.8639782 534.082,57.232 L534.082,84.448 L543.658,85.96 L543.658,91 L512.788,91 L512.788,85.96 L522.238,84.448 L522.238,42.112 L512.284,42.112 L512.284,36.19 Z M652.27,91 L631.732,91 L631.732,83.692 C626.607974,89.1520273 620.560035,91.882 613.588,91.882 C606.111963,91.882 599.980024,89.1940269 595.192,83.818 C590.403976,78.4419731 588.01,71.5120424 588.01,63.028 C588.01,54.7119584 590.592974,47.8030275 595.759,42.301 C600.925026,36.7989725 607.245963,34.048 614.722,34.048 C621.106032,34.048 626.649976,36.1059794 631.354,40.222 L631.354,8.344 L621.148,8.344 L621.148,2.422 L643.072,0.532 L643.072,84.448 L652.27,85.96 L652.27,91 Z M631.354,63.028 C631.354,55.8039639 629.758016,50.092021 626.566,45.892 C623.625985,42.1959815 620.098021,40.348 615.982,40.348 C611.445977,40.348 607.750014,42.5319782 604.894,46.9 C602.037986,51.2680218 600.61,56.6439681 600.61,63.028 C600.61,69.4120319 602.037986,74.7669784 604.894,79.093 C607.750014,83.4190216 611.445977,85.582 615.982,85.582 C620.01402,85.582 623.415986,83.8180176 626.188,80.29 C629.632017,75.9219782 631.354,70.1680357 631.354,63.028 L631.354,63.028 Z M724.972,85.96 L724.972,91 L704.056,91 L704.056,83.692 C698.511972,89.2360277 692.632031,92.008 686.416,92.008 C683.559986,92.008 680.956012,91.6510036 678.604,90.937 C676.251988,90.2229964 673.984011,89.0260084 671.8,87.346 C669.615989,85.6659916 667.936006,83.1880164 666.76,79.912 C665.583994,76.6359836 664.996,72.7300227 664.996,68.194 L665.122,42.112 L655.168,42.112 L655.168,36.19 L676.966,34.93 L676.966,67.816 C676.966,73.5280286 678.225987,77.5599882 680.746,79.912 C683.266013,82.2640118 686.331982,83.44 689.944,83.44 C693.89202,83.44 697.167987,82.0750137 699.772,79.345 C702.376013,76.6149863 703.678,72.9400231 703.678,68.32 L703.678,42.112 L693.598,42.112 L693.598,36.19 L715.396,34.93 L715.396,84.448 L724.972,85.96 Z M781.546,81.55 C775.245969,88.4380344 767.938042,91.882 759.622,91.882 C751.473959,91.882 744.754026,89.1310275 739.462,83.629 C734.169974,78.1269725 731.524,71.3020407 731.524,63.154 C731.524,55.0059593 734.148974,48.1180281 739.399,42.49 C744.649026,36.8619719 751.473958,34.048 759.874,34.048 C766.174031,34.048 771.36098,35.4129863 775.435,38.143 C779.50902,40.8730136 781.546,43.9599828 781.546,47.404 C781.546,49.5040105 780.895007,51.3309922 779.593,52.885 C778.290993,54.4390078 776.548011,55.216 774.364,55.216 C772.263989,55.216 770.626006,54.5440067 769.45,53.2 C768.273994,51.8559933 767.686,50.3020088 767.686,48.538 C767.686,46.8579916 768.399993,45.3040071 769.828,43.876 C767.223987,41.6079887 763.90602,40.474 759.874,40.474 C755.169976,40.474 751.369014,42.6789779 748.471,47.089 C745.572986,51.4990221 744.124,56.9379677 744.124,63.406 C744.124,70.210034 745.803983,75.3759824 749.164,78.904 C752.524017,82.4320176 756.597976,84.196 761.386,84.196 C767.014028,84.196 772.515973,81.9280227 777.892,77.392 L781.546,81.55 Z M824.008,83.692 L825.394,88.858 C820.185974,90.8740101 815.902017,91.882 812.542,91.882 C805.989967,91.882 801.538012,88.9000298 799.186,82.936 C798.009994,79.743984 797.422,75.3760277 797.422,69.832 L797.422,42.112 L786.208,42.112 L786.208,35.056 L797.422,35.056 L797.422,16.534 L809.392,11.242 L809.392,34.93 L824.89,34.93 L824.89,41.986 L809.392,41.986 L809.392,70.714 C809.392,79.9540462 812.41597,84.574 818.464,84.574 C819.808007,84.574 821.655988,84.2800029 824.008,83.692 L824.008,83.692 Z M886.504,63.028 C886.504,71.1760407 883.879026,78.0219723 878.629,83.566 C873.378974,89.1100277 866.72204,91.882 858.658,91.882 C850.509959,91.882 843.811026,89.1100277 838.561,83.566 C833.310974,78.0219723 830.686,71.1760407 830.686,63.028 C830.686,54.9639597 833.310974,48.1180281 838.561,42.49 C843.811026,36.8619719 850.509959,34.048 858.658,34.048 C866.72204,34.048 873.378974,36.8619719 878.629,42.49 C883.879026,48.1180281 886.504,54.9639597 886.504,63.028 L886.504,63.028 Z M874.03,63.028 C874.03,56.6439681 872.581014,51.2680218 869.683,46.9 C866.784986,42.5319782 863.110022,40.348 858.658,40.348 C854.121977,40.348 850.426014,42.5319782 847.57,46.9 C844.713986,51.2680218 843.286,56.6439681 843.286,63.028 C843.286,69.4120319 844.713986,74.7669784 847.57,79.093 C850.426014,83.4190216 854.121977,85.582 858.658,85.582 C863.110022,85.582 866.784986,83.4190216 869.683,79.093 C872.581014,74.7669784 874.03,69.4120319 874.03,63.028 L874.03,63.028 Z M929.218,42.238 C924.597977,41.9019983 920.944013,43.2459849 918.256,46.27 C915.567987,49.2940151 914.224,52.9899782 914.224,57.358 L914.224,84.448 L924.682,85.96 L924.682,91 L892.93,91 L892.93,85.96 L902.38,84.448 L902.38,42.112 L892.426,42.112 L892.426,36.19 L913.846,34.3 L913.846,42.364 C919.390028,36.8199723 925.227969,34.048 931.36,34.048 C934.216014,34.048 936.840988,34.8039924 939.235,36.316 C941.629012,37.8280076 942.826,40.0959849 942.826,43.12 C942.826,45.3040109 942.175007,47.1519924 940.873,48.664 C939.570993,50.1760076 937.786011,50.932 935.518,50.932 C933.41799,50.932 931.801006,50.2810065 930.667,48.979 C929.532994,47.6769935 928.966,46.1440088 928.966,44.38 C928.966,43.6239962 929.049999,42.9100034 929.218,42.238 L929.218,42.238 Z M952.276,84.448 C952.276,86.6320109 951.604007,88.4169931 950.26,89.803 C948.915993,91.1890069 947.194011,91.882 945.094,91.882 C942.993989,91.882 941.251007,91.1890069 939.865,89.803 C938.478993,88.4169931 937.786,86.6320109 937.786,84.448 C937.786,82.2639891 938.478993,80.4790069 939.865,79.093 C941.251007,77.7069931 942.993989,77.014 945.094,77.014 C947.194011,77.014 948.915993,77.7069931 950.26,79.093 C951.604007,80.4790069 952.276,82.2639891 952.276,84.448 L952.276,84.448 Z" id="We’re-Conductor." fill="#2CBBF7" sketch:type="MSShapeGroup"></path>
    </g>
</svg>